<?xml version="1.0" encoding="UTF-8"?>
<!DOCTYPE svg PUBLIC "-//W3C//DTD SVG 1.1//EN" "http://www.w3.org/Graphics/SVG/1.1/DTD/svg11.dtd">
<svg xmlns="http://www.w3.org/2000/svg" version="1.1" width="3000px" height="3000px" style="shape-rendering:geometricPrecision; text-rendering:geometricPrecision; image-rendering:optimizeQuality; fill-rule:evenodd; clip-rule:evenodd" xmlns:xlink="http://www.w3.org/1999/xlink">
<g><path style="opacity:0.998" fill="#294172" d="M 1516.5,186.5 C 1826.66,184.043 2102,279.21 2342.5,472C 2563.55,655.769 2707.72,888.269 2775,1169.5C 2832.65,1432.3 2810.99,1688.3 2710,1937.5C 2590.62,2215.88 2397.78,2427.04 2131.5,2571C 1954.57,2663.32 1766.24,2711.65 1566.5,2716C 1228.5,2716.67 890.5,2716.67 552.5,2716C 442.415,2707.75 360.915,2655.58 308,2559.5C 288.736,2520.78 278.403,2479.78 277,2436.5C 276.333,2102.5 276.333,1768.5 277,1434.5C 285.175,1105.42 400.509,821.083 623,581.5C 839.183,357.333 1103.02,227.833 1414.5,193C 1448.6,189.83 1482.6,187.663 1516.5,186.5 Z"/></g>
<g><path style="opacity:1" fill="#fefefe" d="M 1968.5,489.5 C 1997.85,493.507 2026.85,499.674 2055.5,508C 2103.95,523.786 2138.45,554.953 2159,601.5C 2171.28,642.41 2166.28,681.077 2144,717.5C 2119.28,751.454 2085.78,770.288 2043.5,774C 2025.43,775.014 2007.43,774.514 1989.5,772.5C 1945.18,766.158 1900.84,765.992 1856.5,772C 1759.06,792.155 1685.89,845.322 1637,931.5C 1615.59,971.893 1603.25,1014.89 1600,1060.5C 1599.83,1109.83 1599.67,1159.17 1599.5,1208.5C 1599.34,1259.54 1599.84,1310.54 1601,1361.5C 1605.95,1380.62 1618.11,1391.95 1637.5,1395.5C 1713.67,1396.33 1790,1396.83 1866.5,1397C 1930.37,1407.88 1970.21,1444.71 1986,1507.5C 1994.83,1570.09 1972.99,1618.59 1920.5,1653C 1902.2,1663.04 1882.87,1669.54 1862.5,1672.5C 1774.83,1672.5 1687.17,1672.5 1599.5,1672.5C 1599.67,1785.17 1599.5,1897.83 1599,2010.5C 1588.29,2192.76 1512.46,2340.93 1371.5,2455C 1243.11,2552.11 1098.45,2592.61 937.5,2576.5C 910.274,2571.51 883.274,2565.01 856.5,2557C 814.254,2541.09 783.088,2512.92 763,2472.5C 744.4,2420.68 753.067,2374.01 789,2332.5C 817.791,2305.28 852.124,2291.95 892,2292.5C 904.211,2292.57 916.378,2293.24 928.5,2294.5C 966.362,2299.6 1004.36,2300.76 1042.5,2298C 1148.25,2282.92 1227.75,2229.42 1281,2137.5C 1303.41,2095.61 1316.07,2050.94 1319,2003.5C 1319.67,1904.83 1319.67,1806.17 1319,1707.5C 1314.38,1687.88 1302.22,1676.05 1282.5,1672C 1208.17,1671.5 1133.83,1671.33 1059.5,1671.5C 1002.53,1664.77 962.694,1635.1 940,1582.5C 922.161,1530.19 930.827,1482.86 966,1440.5C 989.435,1415.37 1018.27,1400.7 1052.5,1396.5C 1142.13,1395.51 1231.79,1395.17 1321.5,1395.5C 1321.27,1273.5 1321.6,1151.5 1322.5,1029.5C 1324.05,1009.68 1327.05,990.343 1331.5,971.5C 1333.62,963.759 1334.95,955.759 1335.5,947.5C 1336.5,947.5 1337.5,947.5 1338.5,947.5C 1338.92,942.087 1338.92,936.754 1338.5,931.5C 1375.73,793.455 1451.73,682.288 1566.5,598C 1687.15,513.354 1821.15,477.187 1968.5,489.5 Z"/></g>
<g><path style="opacity:1" fill="#3c6eb3" d="M 1968.5,489.5 C 2133.99,507.315 2269.49,579.982 2375,707.5C 2489.99,856.26 2528.99,1023.26 2492,1208.5C 2454.33,1364.8 2369.16,1487.63 2236.5,1577C 2122.32,1648.88 1997.65,1680.71 1862.5,1672.5C 1882.87,1669.54 1902.2,1663.04 1920.5,1653C 1972.99,1618.59 1994.83,1570.09 1986,1507.5C 1970.21,1444.71 1930.37,1407.88 1866.5,1397C 1790,1396.83 1713.67,1396.33 1637.5,1395.5C 1734.83,1395.67 1832.17,1395.5 1929.5,1395C 2030.75,1387.31 2111.25,1342.81 2171,1261.5C 2226.91,1178.12 2241.91,1087.79 2216,990.5C 2178.52,878.181 2103.02,805.514 1989.5,772.5C 2007.43,774.514 2025.43,775.014 2043.5,774C 2085.78,770.288 2119.28,751.454 2144,717.5C 2166.28,681.077 2171.28,642.41 2159,601.5C 2138.45,554.953 2103.95,523.786 2055.5,508C 2026.85,499.674 1997.85,493.507 1968.5,489.5 Z"/></g>
<g><path style="opacity:1" fill="#333333" d="M 1337.5,933.5 C 1335.87,942.468 1334.04,951.468 1332,960.5C 1331.5,964.152 1331.33,967.818 1331.5,971.5C 1327.05,990.343 1324.05,1009.68 1322.5,1029.5C 1321.53,1031.95 1321.19,1034.61 1321.5,1037.5C 1320.83,1049.5 1320.17,1061.5 1319.5,1073.5C 1300.39,1050.64 1283.22,1026.3 1268,1000.5C 1258.33,982.833 1248.67,965.167 1239,947.5C 1230.07,929.543 1221.24,911.543 1212.5,893.5C 1201.63,903.206 1191.3,913.372 1181.5,924C 1165.52,939.316 1147.85,952.316 1128.5,963C 1103.68,974.629 1080.35,972.296 1058.5,956C 1050.14,949.813 1042.14,943.146 1034.5,936C 1033.55,935.517 1032.55,935.351 1031.5,935.5C 1031.5,945.833 1031.5,956.167 1031.5,966.5C 1030.51,974.65 1030.17,982.983 1030.5,991.5C 1025.54,1032.38 1017.87,1072.71 1007.5,1112.5C 1005.96,1114.84 1005.29,1117.5 1005.5,1120.5C 995.539,1154.23 987.705,1188.56 982,1223.5C 979.877,1242.79 979.21,1262.12 980,1281.5C 981.473,1290.52 982.806,1299.52 984,1308.5C 963.305,1274.36 955.638,1237.36 961,1197.5C 964.383,1178.17 970.383,1159.84 979,1142.5C 979.667,1141.5 979.667,1140.5 979,1139.5C 945.113,1189.53 939.113,1242.87 961,1299.5C 981.064,1340.73 1011.23,1372.4 1051.5,1394.5C 1044.02,1395.49 1036.35,1395.83 1028.5,1395.5C 1028.17,1395.5 1027.83,1395.5 1027.5,1395.5C 1027.17,1394.5 1026.5,1393.83 1025.5,1393.5C 1004.75,1373.59 983.75,1353.76 962.5,1334C 954.549,1326.94 945.382,1322.11 935,1319.5C 929.759,1320.74 926.426,1324.07 925,1329.5C 919.801,1348.35 915.135,1367.35 911,1386.5C 908.213,1393.78 904.046,1400.11 898.5,1405.5C 895.624,1405.93 892.791,1406.59 890,1407.5C 889.235,1407.43 888.735,1407.1 888.5,1406.5C 897.042,1400.44 903.208,1392.44 907,1382.5C 910.578,1369.69 913.078,1356.69 914.5,1343.5C 910.847,1329.23 908.18,1314.9 906.5,1300.5C 906.417,1285.82 906.75,1271.15 907.5,1256.5C 911.174,1231.97 916.341,1207.64 923,1183.5C 938.575,1141.34 955.575,1099.67 974,1058.5C 979.325,1041.36 984.992,1024.36 991,1007.5C 1003.26,957.479 1003.59,907.145 992,856.5C 983.39,825.669 975.39,794.669 968,763.5C 962.77,737.605 965.27,712.605 975.5,688.5C 997.495,647.183 1030.5,618.183 1074.5,601.5C 1111.51,592.541 1146.51,597.374 1179.5,616C 1207.9,632.268 1229.4,655.101 1244,684.5C 1245.79,690.743 1248.12,696.743 1251,702.5C 1258.46,740.122 1265.79,777.788 1273,815.5C 1283.73,860.98 1305.23,900.313 1337.5,933.5 Z"/></g>
<g><path style="opacity:1" fill="#ececec" d="M 1142.5,736.5 C 1173.89,735.286 1193.39,749.952 1201,780.5C 1202.97,799.379 1198.97,816.713 1189,832.5C 1188.67,834.5 1188.33,836.5 1188,838.5C 1179.14,837.663 1170.31,836.33 1161.5,834.5C 1170.68,823.448 1173.85,810.781 1171,796.5C 1168.91,785.787 1163.07,777.953 1153.5,773C 1136.2,770.947 1125.36,778.447 1121,795.5C 1119.55,806.733 1121.38,817.399 1126.5,827.5C 1126,827.833 1125.5,828.167 1125,828.5C 1119.67,827.281 1114.33,826.281 1109,825.5C 1104.13,805.28 1104.8,785.28 1111,765.5C 1116.85,750.677 1127.35,741.01 1142.5,736.5 Z"/></g>
<g><path style="opacity:1" fill="#294172" d="M 1989.5,772.5 C 2103.02,805.514 2178.52,878.181 2216,990.5C 2241.91,1087.79 2226.91,1178.12 2171,1261.5C 2111.25,1342.81 2030.75,1387.31 1929.5,1395C 1832.17,1395.5 1734.83,1395.67 1637.5,1395.5C 1618.11,1391.95 1605.95,1380.62 1601,1361.5C 1599.84,1310.54 1599.34,1259.54 1599.5,1208.5C 1599.67,1159.17 1599.83,1109.83 1600,1060.5C 1603.25,1014.89 1615.59,971.893 1637,931.5C 1685.89,845.322 1759.06,792.155 1856.5,772C 1900.84,765.992 1945.18,766.158 1989.5,772.5 Z"/></g>
<g><path style="opacity:1" fill="#eaeaea" d="M 1017.5,772.5 C 1022.9,771.966 1027.9,773.133 1032.5,776C 1044.19,785.199 1052.02,797.032 1056,811.5C 1057.96,818.968 1059.79,826.468 1061.5,834C 1057.78,837.38 1053.78,840.547 1049.5,843.5C 1049.55,824.075 1040.55,810.909 1022.5,804C 1015.28,802.519 1010.45,805.353 1008,812.5C 1003.71,828.965 1007.88,842.799 1020.5,854C 1023.92,856.041 1027.59,857.541 1031.5,858.5C 1028.14,862.192 1024.8,865.859 1021.5,869.5C 1000.94,850.7 991.771,827.366 994,799.5C 996.775,785.904 1004.61,776.904 1017.5,772.5 Z"/></g>
<g><path style="opacity:1" fill="#fdcb22" d="M 1093.5,830.5 C 1115.87,831.742 1137.87,834.908 1159.5,840C 1172.18,841.594 1184.84,843.26 1197.5,845C 1209.81,849.311 1215.81,857.978 1215.5,871C 1214.91,878.953 1211.91,885.787 1206.5,891.5C 1194.63,902.874 1182.96,914.374 1171.5,926C 1156.08,940.408 1138.74,952.075 1119.5,961C 1099.44,968.101 1080.77,965.435 1063.5,953C 1052.79,943.952 1041.79,935.286 1030.5,927C 1039.35,929.463 1048.35,931.797 1057.5,934C 1083.75,937.736 1108.42,933.069 1131.5,920C 1155.53,904.806 1176.53,886.14 1194.5,864C 1193.33,862.833 1192.17,861.667 1191,860.5C 1172.86,882.624 1151.69,901.124 1127.5,916C 1098.15,932.004 1067.82,934.337 1036.5,923C 1028,919.001 1019.33,915.501 1010.5,912.5C 1010.02,902.077 1012.52,892.41 1018,883.5C 1031.98,863.857 1049.48,848.023 1070.5,836C 1077.86,832.387 1085.52,830.554 1093.5,830.5 Z"/></g>
<g><path style="opacity:1" fill="#3b3832" d="M 1100.5,855.5 C 1103.94,855.301 1107.27,855.801 1110.5,857C 1112.02,860.659 1110.69,862.159 1106.5,861.5C 1102.62,861.302 1098.95,860.468 1095.5,859C 1097.23,857.811 1098.9,856.644 1100.5,855.5 Z"/></g>
<g><path style="opacity:1" fill="#363532" d="M 1066.5,863.5 C 1068.2,863.34 1069.87,863.506 1071.5,864C 1068.19,867.811 1064.19,870.311 1059.5,871.5C 1059.42,870.07 1059.75,868.736 1060.5,867.5C 1062.57,866.143 1064.57,864.81 1066.5,863.5 Z"/></g>
<g><path style="opacity:1" fill="#ededed" d="M 1319.5,1073.5 C 1319.78,1074.29 1320.28,1074.96 1321,1075.5C 1321.5,1062.84 1321.67,1050.17 1321.5,1037.5C 1321.19,1034.61 1321.53,1031.95 1322.5,1029.5C 1321.6,1151.5 1321.27,1273.5 1321.5,1395.5C 1231.79,1395.17 1142.13,1395.51 1052.5,1396.5C 1052.67,1395.51 1052.34,1394.84 1051.5,1394.5C 1011.23,1372.4 981.064,1340.73 961,1299.5C 939.113,1242.87 945.113,1189.53 979,1139.5C 979.667,1140.5 979.667,1141.5 979,1142.5C 970.383,1159.84 964.383,1178.17 961,1197.5C 955.638,1237.36 963.305,1274.36 984,1308.5C 982.806,1299.52 981.473,1290.52 980,1281.5C 979.21,1262.12 979.877,1242.79 982,1223.5C 987.705,1188.56 995.539,1154.23 1005.5,1120.5C 1006.83,1120.5 1008.17,1120.5 1009.5,1120.5C 1009.71,1117.55 1009.05,1114.88 1007.5,1112.5C 1017.87,1072.71 1025.54,1032.38 1030.5,991.5C 1032.04,990.699 1033.71,990.366 1035.5,990.5C 1034.66,985.794 1033.49,981.128 1032,976.5C 1031.5,973.183 1031.33,969.85 1031.5,966.5C 1031.5,956.167 1031.5,945.833 1031.5,935.5C 1032.55,935.351 1033.55,935.517 1034.5,936C 1042.14,943.146 1050.14,949.813 1058.5,956C 1080.35,972.296 1103.68,974.629 1128.5,963C 1147.85,952.316 1165.52,939.316 1181.5,924C 1191.3,913.372 1201.63,903.206 1212.5,893.5C 1221.24,911.543 1230.07,929.543 1239,947.5C 1248.67,965.167 1258.33,982.833 1268,1000.5C 1283.22,1026.3 1300.39,1050.64 1319.5,1073.5 Z"/></g>
<g><path style="opacity:1" fill="#abacac" d="M 1338.5,931.5 C 1338.92,936.754 1338.92,942.087 1338.5,947.5C 1337.5,947.5 1336.5,947.5 1335.5,947.5C 1334.95,955.759 1333.62,963.759 1331.5,971.5C 1331.33,967.818 1331.5,964.152 1332,960.5C 1334.04,951.468 1335.87,942.468 1337.5,933.5C 1337.33,932.508 1337.66,931.842 1338.5,931.5 Z"/></g>
<g><path style="opacity:1" fill="#3f517b" d="M 1031.5,966.5 C 1031.33,969.85 1031.5,973.183 1032,976.5C 1033.49,981.128 1034.66,985.794 1035.5,990.5C 1033.71,990.366 1032.04,990.699 1030.5,991.5C 1030.17,982.983 1030.51,974.65 1031.5,966.5 Z"/></g>
<g><path style="opacity:1" fill="#646465" d="M 1321.5,1037.5 C 1321.67,1050.17 1321.5,1062.84 1321,1075.5C 1320.28,1074.96 1319.78,1074.29 1319.5,1073.5C 1320.17,1061.5 1320.83,1049.5 1321.5,1037.5 Z"/></g>
<g><path style="opacity:1" fill="#485a82" d="M 1007.5,1112.5 C 1009.05,1114.88 1009.71,1117.55 1009.5,1120.5C 1008.17,1120.5 1006.83,1120.5 1005.5,1120.5C 1005.29,1117.5 1005.96,1114.84 1007.5,1112.5 Z"/></g>
<g><path style="opacity:1" fill="#576582" d="M 907.5,1256.5 C 906.75,1271.15 906.417,1285.82 906.5,1300.5C 905.834,1295.18 905.501,1289.68 905.5,1284C 905.389,1274.62 906.055,1265.46 907.5,1256.5 Z"/></g>
<g><path style="opacity:1" fill="#fcca22" d="M 1025.5,1393.5 C 1008.17,1394.17 990.833,1394.83 973.5,1395.5C 971.517,1395.16 970.183,1395.82 969.5,1397.5C 960.435,1396.86 951.769,1397.53 943.5,1399.5C 937.729,1398.89 932.396,1399.55 927.5,1401.5C 922.381,1400.9 917.715,1401.56 913.5,1403.5C 908.391,1403.43 903.391,1404.1 898.5,1405.5C 904.046,1400.11 908.213,1393.78 911,1386.5C 915.135,1367.35 919.801,1348.35 925,1329.5C 926.426,1324.07 929.759,1320.74 935,1319.5C 945.382,1322.11 954.549,1326.94 962.5,1334C 983.75,1353.76 1004.75,1373.59 1025.5,1393.5 Z"/></g>
<g><path style="opacity:1" fill="#cbb145" d="M 1025.5,1393.5 C 1026.5,1393.83 1027.17,1394.5 1027.5,1395.5C 1009.5,1395.5 991.5,1395.5 973.5,1395.5C 990.833,1394.83 1008.17,1394.17 1025.5,1393.5 Z"/></g>
<g><path style="opacity:1" fill="#72878b" d="M 973.5,1395.5 C 991.5,1395.5 1009.5,1395.5 1027.5,1395.5C 1027.83,1395.5 1028.17,1395.5 1028.5,1395.5C 1008.98,1396.21 989.314,1396.88 969.5,1397.5C 970.183,1395.82 971.517,1395.16 973.5,1395.5 Z"/></g>
<g><path style="opacity:1" fill="#3c6db3" d="M 1051.5,1394.5 C 1052.34,1394.84 1052.67,1395.51 1052.5,1396.5C 1018.27,1400.7 989.435,1415.37 966,1440.5C 930.827,1482.86 922.161,1530.19 940,1582.5C 962.694,1635.1 1002.53,1664.77 1059.5,1671.5C 1020.25,1669.77 981.25,1671.93 942.5,1678C 854.08,1698.26 785.58,1746.42 737,1822.5C 682.058,1917.32 675.725,2015.32 718,2116.5C 761.744,2207.08 831.91,2266.41 928.5,2294.5C 916.378,2293.24 904.211,2292.57 892,2292.5C 852.124,2291.95 817.791,2305.28 789,2332.5C 753.067,2374.01 744.4,2420.68 763,2472.5C 783.088,2512.92 814.254,2541.09 856.5,2557C 883.274,2565.01 910.274,2571.51 937.5,2576.5C 775.095,2555.07 642.595,2481.07 540,2354.5C 429.416,2208.16 391.416,2044.49 426,1863.5C 464.913,1697.33 556.413,1569.17 700.5,1479C 758.902,1443.97 821.569,1419.81 888.5,1406.5C 888.735,1407.1 889.235,1407.43 890,1407.5C 892.791,1406.59 895.624,1405.93 898.5,1405.5C 903.391,1404.1 908.391,1403.43 913.5,1403.5C 918.338,1403.09 923.005,1402.42 927.5,1401.5C 932.998,1401.05 938.331,1400.38 943.5,1399.5C 952.319,1398.95 960.986,1398.29 969.5,1397.5C 989.314,1396.88 1008.98,1396.21 1028.5,1395.5C 1036.35,1395.83 1044.02,1395.49 1051.5,1394.5 Z"/></g>
<g><path style="opacity:1" fill="#778988" d="M 969.5,1397.5 C 960.986,1398.29 952.319,1398.95 943.5,1399.5C 951.769,1397.53 960.435,1396.86 969.5,1397.5 Z"/></g>
<g><path style="opacity:1" fill="#88917d" d="M 943.5,1399.5 C 938.331,1400.38 932.998,1401.05 927.5,1401.5C 932.396,1399.55 937.729,1398.89 943.5,1399.5 Z"/></g>
<g><path style="opacity:1" fill="#89927c" d="M 927.5,1401.5 C 923.005,1402.42 918.338,1403.09 913.5,1403.5C 917.715,1401.56 922.381,1400.9 927.5,1401.5 Z"/></g>
<g><path style="opacity:1" fill="#294172" d="M 1059.5,1671.5 C 1133.83,1671.33 1208.17,1671.5 1282.5,1672C 1302.22,1676.05 1314.38,1687.88 1319,1707.5C 1319.67,1806.17 1319.67,1904.83 1319,2003.5C 1316.07,2050.94 1303.41,2095.61 1281,2137.5C 1227.75,2229.42 1148.25,2282.92 1042.5,2298C 1004.36,2300.76 966.362,2299.6 928.5,2294.5C 831.91,2266.41 761.744,2207.08 718,2116.5C 675.725,2015.32 682.058,1917.32 737,1822.5C 785.58,1746.42 854.08,1698.26 942.5,1678C 981.25,1671.93 1020.25,1669.77 1059.5,1671.5 Z"/></g>
</svg>
