<?xml version="1.0" encoding="UTF-8"?>
<!DOCTYPE svg PUBLIC "-//W3C//DTD SVG 1.1//EN" "http://www.w3.org/Graphics/SVG/1.1/DTD/svg11.dtd">
<svg xmlns="http://www.w3.org/2000/svg" version="1.1" width="3000px" height="3000px" style="shape-rendering:geometricPrecision; text-rendering:geometricPrecision; image-rendering:optimizeQuality; fill-rule:evenodd; clip-rule:evenodd" xmlns:xlink="http://www.w3.org/1999/xlink">
<g><path style="opacity:0.985" fill="#242424" d="M 1543.5,224.5 C 1612.62,221.797 1678.95,233.964 1742.5,261C 1794.6,286.426 1836.76,323.26 1869,371.5C 1896.18,411.988 1915.84,455.988 1928,503.5C 1949.14,584.116 1960.14,666.116 1961,749.5C 1961.2,777.348 1961.7,805.181 1962.5,833C 1961.35,874.486 1961.19,915.986 1962,957.5C 1964.61,994.937 1973.94,1030.6 1990,1064.5C 2005.21,1097.27 2023.21,1128.27 2044,1157.5C 2082.85,1208.53 2122.18,1259.2 2162,1309.5C 2193.4,1352.64 2224.07,1396.31 2254,1440.5C 2300.68,1512.2 2336.35,1589.2 2361,1671.5C 2371.87,1709.54 2379.54,1748.2 2384,1787.5C 2390.39,1848.66 2385.89,1908.99 2370.5,1968.5C 2409.35,1995.2 2439.18,2029.86 2460,2072.5C 2470.42,2098.84 2475.75,2126.17 2476,2154.5C 2481.05,2172.27 2488.05,2189.27 2497,2205.5C 2513.1,2228.68 2527.43,2253.01 2540,2278.5C 2563.44,2328.89 2571.1,2381.55 2563,2436.5C 2556.44,2477.36 2536.94,2510.53 2504.5,2536C 2466.43,2563.54 2425.43,2586.21 2381.5,2604C 2334.91,2625.1 2292.58,2652.44 2254.5,2686C 2244.6,2695.23 2235.43,2705.06 2227,2715.5C 2143.94,2799.6 2043.11,2844.43 1924.5,2850C 1847.6,2837.33 1788.1,2798.5 1746,2733.5C 1741.14,2725.11 1736.81,2716.45 1733,2707.5C 1728.28,2701.89 1724.44,2695.72 1721.5,2689C 1698.84,2689.84 1676.18,2689.5 1653.5,2688C 1609.84,2683.25 1566.17,2678.58 1522.5,2674C 1494.75,2672.85 1467.09,2673.85 1439.5,2677C 1396.74,2683.25 1354.07,2690.09 1311.5,2697.5C 1297.43,2723.44 1278.76,2745.61 1255.5,2764C 1246.5,2770.33 1237.5,2776.67 1228.5,2783C 1185.9,2797.57 1142.24,2807.23 1097.5,2812C 1010.26,2811.47 929.258,2788.81 854.5,2744C 811.815,2726.11 767.815,2712.44 722.5,2703C 667.257,2699.52 612.924,2690.52 559.5,2676C 516.473,2664.25 481.639,2640.75 455,2605.5C 435.769,2560.68 428.435,2514.01 433,2465.5C 435.525,2451.73 438.525,2438.07 442,2424.5C 446.728,2410.71 451.728,2397.05 457,2383.5C 461.438,2366.96 460.105,2350.96 453,2335.5C 441.816,2295.2 441.816,2254.86 453,2214.5C 466.562,2143.94 506.729,2095.44 573.5,2069C 597.193,2061.65 619.526,2051.32 640.5,2038C 647.221,2024.08 656.054,2011.58 667,2000.5C 683.298,1974.19 702.631,1950.19 725,1928.5C 729.203,1799.36 757.203,1675.69 809,1557.5C 838.39,1493.66 875.057,1434.66 919,1380.5C 934.315,1352.53 951.982,1326.2 972,1301.5C 1047.81,1221.93 1099.81,1128.6 1128,1021.5C 1133.05,997.404 1136.39,973.07 1138,948.5C 1139.35,917.51 1139.68,886.51 1139,855.5C 1135.49,797.374 1132.99,739.208 1131.5,681C 1130.67,610.811 1139.84,541.978 1159,474.5C 1200.92,344.259 1289.08,265.759 1423.5,239C 1463.24,230.827 1503.24,225.993 1543.5,224.5 Z M 1673.5,821.5 C 1675.43,813.206 1678.27,805.206 1682,797.5C 1683.74,791.051 1685.24,784.551 1686.5,778C 1684.77,751.25 1678.27,725.75 1667,701.5C 1657.82,684.957 1644.99,672.123 1628.5,663C 1616.83,658.746 1604.83,656.746 1592.5,657C 1573.44,658.566 1556.94,665.733 1543,678.5C 1556.57,659.659 1574.74,646.826 1597.5,640C 1630.45,645.562 1656.95,661.728 1677,688.5C 1682.41,697.322 1686.74,706.656 1690,716.5C 1692.09,740.276 1691.09,763.943 1687,787.5C 1683.84,799.474 1679.34,810.807 1673.5,821.5 Z M 1256.5,712.5 C 1261.61,695.76 1270.61,681.593 1283.5,670C 1296.9,662.204 1309.9,662.871 1322.5,672C 1333.15,680.85 1340.65,691.684 1345,704.5C 1341.71,701.213 1337.87,698.713 1333.5,697C 1325.66,695.166 1317.83,693.333 1310,691.5C 1298.11,694.097 1286.28,696.93 1274.5,700C 1268.3,703.93 1262.3,708.097 1256.5,712.5 Z M 1435.5,841.5 C 1439.51,841.334 1443.51,841.501 1447.5,842C 1475.93,851.142 1503.27,862.809 1529.5,877C 1540.83,885 1552.17,893 1563.5,901C 1579.71,910.053 1597.04,915.72 1615.5,918C 1617.66,918.914 1619.66,920.081 1621.5,921.5C 1609.2,926.983 1596.86,932.483 1584.5,938C 1553.23,961.972 1518.56,979.638 1480.5,991C 1452.75,997.83 1424.75,999.164 1396.5,995C 1360.75,983.303 1330.08,963.803 1304.5,936.5C 1325.49,920.341 1343.99,901.675 1360,880.5C 1380.76,858.873 1405.92,845.873 1435.5,841.5 Z M 1720.5,1070.5 C 1746.9,1155.86 1776.4,1240.19 1809,1323.5C 1821.84,1354.85 1835.51,1385.85 1850,1416.5C 1884.42,1480.34 1914.75,1546.01 1941,1613.5C 1963.04,1672.95 1981.04,1733.62 1995,1795.5C 1996.74,1797.32 1998.24,1799.32 1999.5,1801.5C 1963.13,1815.04 1937.79,1839.87 1923.5,1876C 1915.47,1881.02 1906.8,1884.35 1897.5,1886C 1856.19,1908.31 1826.36,1941.14 1808,1984.5C 1793.13,2024.97 1783.13,2066.64 1778,2109.5C 1773.03,2154.26 1768.87,2199.09 1765.5,2244C 1772.48,2275.93 1771.98,2307.77 1764,2339.5C 1760.49,2353.89 1756.82,2368.23 1753,2382.5C 1704.25,2419.12 1650.09,2444.95 1590.5,2460C 1484.44,2482.99 1383.1,2469.99 1286.5,2421C 1272.12,2399.08 1257.62,2377.25 1243,2355.5C 1242.33,2354.5 1242.33,2353.5 1243,2352.5C 1272.43,2332.99 1287.26,2305.32 1287.5,2269.5C 1285.04,2239.34 1276.54,2211 1262,2184.5C 1246.1,2158.05 1227.77,2133.38 1207,2110.5C 1176.36,2078.48 1143.19,2049.65 1107.5,2024C 1083.34,2007.09 1059.01,1990.42 1034.5,1974C 1025.54,1966.71 1016.87,1959.04 1008.5,1951C 1017.78,1948.28 1024.94,1942.78 1030,1934.5C 1031.49,1929.54 1032.82,1924.54 1034,1919.5C 1035.32,1841.92 1047.99,1766.25 1072,1692.5C 1078.61,1672.02 1085.61,1651.68 1093,1631.5C 1156.74,1509.63 1206.74,1382.3 1243,1249.5C 1253.76,1209.7 1263.76,1169.7 1273,1129.5C 1278.96,1134.23 1285.46,1138.06 1292.5,1141C 1310.46,1161.33 1332.46,1175.66 1358.5,1184C 1421.26,1201.35 1482.93,1198.01 1543.5,1174C 1561.18,1165.3 1577.52,1154.63 1592.5,1142C 1598.86,1135.3 1605.53,1128.97 1612.5,1123C 1652.94,1114.28 1688.94,1096.78 1720.5,1070.5 Z M 841.5,2003.5 C 856.505,2006.5 869.838,2013 881.5,2023C 896.761,2036.76 910.261,2051.92 922,2068.5C 954.309,2117.77 981.975,2169.77 1005,2224.5C 1016.92,2243.33 1028.58,2262.33 1040,2281.5C 1057.31,2309.82 1077.31,2336.15 1100,2360.5C 1129.46,2396.63 1155.79,2434.97 1179,2475.5C 1187.65,2490.8 1194.65,2506.8 1200,2523.5C 1205.61,2556.8 1198.28,2586.8 1178,2613.5C 1172.47,2619.37 1166.64,2624.87 1160.5,2630C 1139.33,2640.28 1117,2646.28 1093.5,2648C 1047.29,2653.09 1002.62,2647.09 959.5,2630C 935.5,2617.67 911.5,2605.33 887.5,2593C 817.819,2563.86 745.152,2549.86 669.5,2551C 642.554,2546.34 615.554,2542.01 588.5,2538C 580.578,2536.69 573.078,2534.19 566,2530.5C 563.781,2524.05 562.615,2517.39 562.5,2510.5C 563.097,2500.43 564.264,2490.43 566,2480.5C 573.071,2459.29 579.737,2437.96 586,2416.5C 593.401,2389.04 594.734,2361.37 590,2333.5C 586.76,2316.87 582.427,2300.54 577,2284.5C 570.961,2256.78 574.627,2230.44 588,2205.5C 591.878,2199.95 596.711,2195.45 602.5,2192C 609.665,2188.28 616.998,2184.95 624.5,2182C 687.482,2165.31 736.649,2129.81 772,2075.5C 785.102,2051.72 801.935,2030.89 822.5,2013C 828.657,2009.25 834.99,2006.09 841.5,2003.5 Z M 1947.5,2060.5 C 1967.89,2093.05 1995.22,2118.22 2029.5,2136C 2044.24,2142.14 2059.57,2144.14 2075.5,2142C 2110.59,2139.73 2144.59,2132.39 2177.5,2120C 2200.67,2109.93 2221.67,2096.59 2240.5,2080C 2257.19,2079.19 2273.86,2079.52 2290.5,2081C 2304.79,2084.9 2315.96,2093.06 2324,2105.5C 2332.22,2118.49 2337.88,2132.49 2341,2147.5C 2341.49,2167.96 2344.83,2187.96 2351,2207.5C 2361.67,2234.17 2372.33,2260.83 2383,2287.5C 2395,2301.5 2407,2315.5 2419,2329.5C 2428.72,2342.78 2436.22,2357.28 2441.5,2373C 2438.51,2377.32 2434.85,2380.99 2430.5,2384C 2396.5,2406 2360.5,2424.34 2322.5,2439C 2247.72,2473.82 2186.55,2524.99 2139,2592.5C 2084.05,2661.87 2012.55,2690.03 1924.5,2677C 1888.61,2667.45 1866.78,2644.61 1859,2608.5C 1852.4,2562.71 1853.06,2517.04 1861,2471.5C 1866.56,2451.16 1873.89,2431.49 1883,2412.5C 1897.14,2361.63 1910.8,2310.63 1924,2259.5C 1927.39,2213.45 1931.39,2167.45 1936,2121.5C 1938.11,2100.81 1941.95,2080.48 1947.5,2060.5 Z"/></g>
<g><path style="opacity:1" fill="#fefefe" d="M 1529.5,260.5 C 1587.98,256.496 1644.98,263.662 1700.5,282C 1762.51,305.019 1811.01,344.519 1846,400.5C 1878.6,455.955 1899.93,515.621 1910,579.5C 1919.74,637.754 1925.08,696.42 1926,755.5C 1926.76,812.837 1926.6,870.171 1925.5,927.5C 1925.38,984.783 1937.88,1039.12 1963,1090.5C 1986.01,1135.22 2013.01,1177.22 2044,1216.5C 2075.05,1255.21 2105.71,1294.21 2136,1333.5C 2165.07,1373.31 2193.4,1413.64 2221,1454.5C 2262.56,1518.63 2295.9,1586.96 2321,1659.5C 2346.12,1734.92 2355.45,1812.25 2349,1891.5C 2345.24,1926.26 2338.08,1960.26 2327.5,1993.5C 2344.22,1996.53 2359.22,2003.36 2372.5,2014C 2395.61,2035.1 2414.11,2059.6 2428,2087.5C 2437.5,2109.84 2441.83,2133.17 2441,2157.5C 2446.17,2180.34 2454.5,2202 2466,2222.5C 2486.69,2252.21 2504.03,2283.88 2518,2317.5C 2531.65,2358.73 2534.32,2400.73 2526,2443.5C 2518.35,2470.81 2503.18,2492.98 2480.5,2510C 2451.29,2530.45 2420.29,2548.12 2387.5,2563C 2329.94,2586.42 2277.94,2618.42 2231.5,2659C 2220.27,2669.56 2209.77,2680.73 2200,2692.5C 2131.91,2759.96 2050.07,2800.46 1954.5,2814C 1937.23,2815.66 1920.23,2814.33 1903.5,2810C 1845.87,2793.36 1802.04,2759.19 1772,2707.5C 1768.94,2701.67 1766.28,2695.67 1764,2689.5C 1753.84,2678.53 1749.34,2665.53 1750.5,2650.5C 1714.56,2653.88 1678.56,2654.38 1642.5,2652C 1604.24,2646.94 1565.91,2642.61 1527.5,2639C 1506.83,2638.33 1486.17,2638.33 1465.5,2639C 1445.11,2640.87 1424.78,2643.21 1404.5,2646C 1372.26,2651.87 1339.92,2657.21 1307.5,2662C 1300.83,2662.33 1294.17,2662.67 1287.5,2663C 1277.39,2691.54 1260.39,2715.21 1236.5,2734C 1228.18,2740.49 1219.52,2746.49 1210.5,2752C 1175.46,2764.28 1139.46,2772.28 1102.5,2776C 1051.95,2778.21 1002.95,2770.54 955.5,2753C 927.279,2742.39 900.279,2729.39 874.5,2714C 820.155,2690.77 763.821,2674.44 705.5,2665C 659.681,2662.6 614.681,2655.26 570.5,2643C 536.515,2633.65 508.348,2615.48 486,2588.5C 469.212,2547.31 463.545,2504.65 469,2460.5C 470.529,2452.05 472.529,2443.72 475,2435.5C 479.333,2424.17 483.667,2412.83 488,2401.5C 493.512,2383.89 495.512,2365.89 494,2347.5C 490.329,2335.16 486.663,2322.82 483,2310.5C 477.321,2266.63 482.321,2223.96 498,2182.5C 521.918,2135.42 559.751,2105.92 611.5,2094C 631.144,2084.85 649.81,2074.18 667.5,2062C 672.509,2058.51 675.009,2053.67 675,2047.5C 680.44,2037.05 687.774,2028.05 697,2020.5C 706.397,2003.44 717.731,1987.77 731,1973.5C 741.042,1963.63 750.875,1953.63 760.5,1943.5C 761.462,1766.59 809.962,1604.26 906,1456.5C 919.565,1436.93 933.898,1417.93 949,1399.5C 959.08,1380.33 970.413,1362 983,1344.5C 1001.67,1322.5 1020.33,1300.5 1039,1278.5C 1089.43,1214.67 1127.09,1143.67 1152,1065.5C 1169.51,1005.44 1177.34,944.103 1175.5,881.5C 1174.46,846.123 1172.63,810.79 1170,775.5C 1166.52,715.464 1166.85,655.464 1171,595.5C 1175.34,542.836 1187.67,492.169 1208,443.5C 1243.17,367.337 1300.33,315.171 1379.5,287C 1406.52,277.662 1434.19,270.995 1462.5,267C 1484.92,264.158 1507.25,261.991 1529.5,260.5 Z M 1673.5,821.5 C 1679.34,810.807 1683.84,799.474 1687,787.5C 1691.09,763.943 1692.09,740.276 1690,716.5C 1686.74,706.656 1682.41,697.322 1677,688.5C 1656.95,661.728 1630.45,645.562 1597.5,640C 1574.74,646.826 1556.57,659.659 1543,678.5C 1556.94,665.733 1573.44,658.566 1592.5,657C 1604.83,656.746 1616.83,658.746 1628.5,663C 1644.99,672.123 1657.82,684.957 1667,701.5C 1678.27,725.75 1684.77,751.25 1686.5,778C 1685.24,784.551 1683.74,791.051 1682,797.5C 1678.27,805.206 1675.43,813.206 1673.5,821.5 Z M 1256.5,712.5 C 1262.3,708.097 1268.3,703.93 1274.5,700C 1286.28,696.93 1298.11,694.097 1310,691.5C 1317.83,693.333 1325.66,695.166 1333.5,697C 1337.87,698.713 1341.71,701.213 1345,704.5C 1340.65,691.684 1333.15,680.85 1322.5,672C 1309.9,662.871 1296.9,662.204 1283.5,670C 1270.61,681.593 1261.61,695.76 1256.5,712.5 Z M 1435.5,841.5 C 1405.92,845.873 1380.76,858.873 1360,880.5C 1343.99,901.675 1325.49,920.341 1304.5,936.5C 1330.08,963.803 1360.75,983.303 1396.5,995C 1424.75,999.164 1452.75,997.83 1480.5,991C 1518.56,979.638 1553.23,961.972 1584.5,938C 1596.86,932.483 1609.2,926.983 1621.5,921.5C 1619.66,920.081 1617.66,918.914 1615.5,918C 1597.04,915.72 1579.71,910.053 1563.5,901C 1552.17,893 1540.83,885 1529.5,877C 1503.27,862.809 1475.93,851.142 1447.5,842C 1443.51,841.501 1439.51,841.334 1435.5,841.5 Z M 1720.5,1070.5 C 1688.94,1096.78 1652.94,1114.28 1612.5,1123C 1605.53,1128.97 1598.86,1135.3 1592.5,1142C 1577.52,1154.63 1561.18,1165.3 1543.5,1174C 1482.93,1198.01 1421.26,1201.35 1358.5,1184C 1332.46,1175.66 1310.46,1161.33 1292.5,1141C 1285.46,1138.06 1278.96,1134.23 1273,1129.5C 1263.76,1169.7 1253.76,1209.7 1243,1249.5C 1206.74,1382.3 1156.74,1509.63 1093,1631.5C 1085.61,1651.68 1078.61,1672.02 1072,1692.5C 1047.99,1766.25 1035.32,1841.92 1034,1919.5C 1032.82,1924.54 1031.49,1929.54 1030,1934.5C 1024.94,1942.78 1017.78,1948.28 1008.5,1951C 1016.87,1959.04 1025.54,1966.71 1034.5,1974C 1059.01,1990.42 1083.34,2007.09 1107.5,2024C 1143.19,2049.65 1176.36,2078.48 1207,2110.5C 1227.77,2133.38 1246.1,2158.05 1262,2184.5C 1276.54,2211 1285.04,2239.34 1287.5,2269.5C 1287.26,2305.32 1272.43,2332.99 1243,2352.5C 1242.33,2353.5 1242.33,2354.5 1243,2355.5C 1257.62,2377.25 1272.12,2399.08 1286.5,2421C 1383.1,2469.99 1484.44,2482.99 1590.5,2460C 1650.09,2444.95 1704.25,2419.12 1753,2382.5C 1756.82,2368.23 1760.49,2353.89 1764,2339.5C 1771.98,2307.77 1772.48,2275.93 1765.5,2244C 1768.87,2199.09 1773.03,2154.26 1778,2109.5C 1783.13,2066.64 1793.13,2024.97 1808,1984.5C 1826.36,1941.14 1856.19,1908.31 1897.5,1886C 1906.8,1884.35 1915.47,1881.02 1923.5,1876C 1937.79,1839.87 1963.13,1815.04 1999.5,1801.5C 1998.24,1799.32 1996.74,1797.32 1995,1795.5C 1981.04,1733.62 1963.04,1672.95 1941,1613.5C 1914.75,1546.01 1884.42,1480.34 1850,1416.5C 1835.51,1385.85 1821.84,1354.85 1809,1323.5C 1776.4,1240.19 1746.9,1155.86 1720.5,1070.5 Z M 841.5,2003.5 C 834.99,2006.09 828.657,2009.25 822.5,2013C 801.935,2030.89 785.102,2051.72 772,2075.5C 736.649,2129.81 687.482,2165.31 624.5,2182C 616.998,2184.95 609.665,2188.28 602.5,2192C 596.711,2195.45 591.878,2199.95 588,2205.5C 574.627,2230.44 570.961,2256.78 577,2284.5C 582.427,2300.54 586.76,2316.87 590,2333.5C 594.734,2361.37 593.401,2389.04 586,2416.5C 579.737,2437.96 573.071,2459.29 566,2480.5C 564.264,2490.43 563.097,2500.43 562.5,2510.5C 562.615,2517.39 563.781,2524.05 566,2530.5C 573.078,2534.19 580.578,2536.69 588.5,2538C 615.554,2542.01 642.554,2546.34 669.5,2551C 745.152,2549.86 817.819,2563.86 887.5,2593C 911.5,2605.33 935.5,2617.67 959.5,2630C 1002.62,2647.09 1047.29,2653.09 1093.5,2648C 1117,2646.28 1139.33,2640.28 1160.5,2630C 1166.64,2624.87 1172.47,2619.37 1178,2613.5C 1198.28,2586.8 1205.61,2556.8 1200,2523.5C 1194.65,2506.8 1187.65,2490.8 1179,2475.5C 1155.79,2434.97 1129.46,2396.63 1100,2360.5C 1077.31,2336.15 1057.31,2309.82 1040,2281.5C 1028.58,2262.33 1016.92,2243.33 1005,2224.5C 981.975,2169.77 954.309,2117.77 922,2068.5C 910.261,2051.92 896.761,2036.76 881.5,2023C 869.838,2013 856.505,2006.5 841.5,2003.5 Z M 1947.5,2060.5 C 1941.95,2080.48 1938.11,2100.81 1936,2121.5C 1931.39,2167.45 1927.39,2213.45 1924,2259.5C 1910.8,2310.63 1897.14,2361.63 1883,2412.5C 1873.89,2431.49 1866.56,2451.16 1861,2471.5C 1853.06,2517.04 1852.4,2562.71 1859,2608.5C 1866.78,2644.61 1888.61,2667.45 1924.5,2677C 2012.55,2690.03 2084.05,2661.87 2139,2592.5C 2186.55,2524.99 2247.72,2473.82 2322.5,2439C 2360.5,2424.34 2396.5,2406 2430.5,2384C 2434.85,2380.99 2438.51,2377.32 2441.5,2373C 2436.22,2357.28 2428.72,2342.78 2419,2329.5C 2407,2315.5 2395,2301.5 2383,2287.5C 2372.33,2260.83 2361.67,2234.17 2351,2207.5C 2344.83,2187.96 2341.49,2167.96 2341,2147.5C 2337.88,2132.49 2332.22,2118.49 2324,2105.5C 2315.96,2093.06 2304.79,2084.9 2290.5,2081C 2273.86,2079.52 2257.19,2079.19 2240.5,2080C 2221.67,2096.59 2200.67,2109.93 2177.5,2120C 2144.59,2132.39 2110.59,2139.73 2075.5,2142C 2059.57,2144.14 2044.24,2142.14 2029.5,2136C 1995.22,2118.22 1967.89,2093.05 1947.5,2060.5 Z"/></g>
<g><path style="opacity:0.989" fill="#242424" d="M 1598.5,603.5 C 1645.91,611.433 1683.07,635.1 1710,674.5C 1727.1,704.19 1732.1,735.857 1725,769.5C 1720.92,805.404 1708.76,838.237 1688.5,868C 1683.5,868.667 1678.5,868.667 1673.5,868C 1660.5,862.333 1647.5,856.667 1634.5,851C 1631.35,849.022 1628.69,846.522 1626.5,843.5C 1629.64,839.191 1632.14,834.524 1634,829.5C 1638.14,813.09 1643.47,797.09 1650,781.5C 1651.42,755.19 1644.76,731.19 1630,709.5C 1617.71,693.134 1601.87,688.301 1582.5,695C 1564.9,702.6 1552.74,715.433 1546,733.5C 1539.09,752.551 1536.09,772.218 1537,792.5C 1533.71,789.213 1529.87,786.713 1525.5,785C 1517.91,782.136 1510.24,779.469 1502.5,777C 1497.33,774.92 1492.67,772.087 1488.5,768.5C 1478.91,711.401 1496.58,664.901 1541.5,629C 1558.79,616.522 1577.79,608.022 1598.5,603.5 Z M 1673.5,821.5 C 1679.34,810.807 1683.84,799.474 1687,787.5C 1691.09,763.943 1692.09,740.276 1690,716.5C 1686.74,706.656 1682.41,697.322 1677,688.5C 1656.95,661.728 1630.45,645.562 1597.5,640C 1574.74,646.826 1556.57,659.659 1543,678.5C 1556.94,665.733 1573.44,658.566 1592.5,657C 1604.83,656.746 1616.83,658.746 1628.5,663C 1644.99,672.123 1657.82,684.957 1667,701.5C 1678.27,725.75 1684.77,751.25 1686.5,778C 1685.24,784.551 1683.74,791.051 1682,797.5C 1678.27,805.206 1675.43,813.206 1673.5,821.5 Z"/></g>
<g><path style="opacity:0.994" fill="#242424" d="M 1399.5,765.5 C 1399.5,774.5 1399.5,783.5 1399.5,792.5C 1398.21,792.263 1397.21,792.596 1396.5,793.5C 1379.41,797.213 1364.41,804.88 1351.5,816.5C 1350.83,806.167 1350.17,795.833 1349.5,785.5C 1348.25,768.913 1342.75,753.913 1333,740.5C 1319.98,726.004 1304.82,723.504 1287.5,733C 1279.42,739.092 1273.59,746.925 1270,756.5C 1261.72,779.806 1260.39,803.473 1266,827.5C 1271.66,839.842 1279.66,850.508 1290,859.5C 1290.67,861.167 1290.67,862.833 1290,864.5C 1286.79,866.461 1283.29,867.627 1279.5,868C 1273.5,868.667 1267.5,868.667 1261.5,868C 1236.91,843.993 1220.74,815.16 1213,781.5C 1208.84,736.483 1219.5,695.483 1245,658.5C 1270.14,627.26 1300.64,620.76 1336.5,639C 1351.48,648.975 1363.31,661.808 1372,677.5C 1386.7,705.102 1395.87,734.435 1399.5,765.5 Z M 1256.5,712.5 C 1262.3,708.097 1268.3,703.93 1274.5,700C 1286.28,696.93 1298.11,694.097 1310,691.5C 1317.83,693.333 1325.66,695.166 1333.5,697C 1337.87,698.713 1341.71,701.213 1345,704.5C 1340.65,691.684 1333.15,680.85 1322.5,672C 1309.9,662.871 1296.9,662.204 1283.5,670C 1270.61,681.593 1261.61,695.76 1256.5,712.5 Z"/></g>
<g><path style="opacity:1" fill="#9d9d9d" d="M 1399.5,765.5 C 1400.49,774.652 1400.83,783.985 1400.5,793.5C 1399.17,793.5 1397.83,793.5 1396.5,793.5C 1397.21,792.596 1398.21,792.263 1399.5,792.5C 1399.5,783.5 1399.5,774.5 1399.5,765.5 Z"/></g>
<g><path style="opacity:1" fill="#7d7d7d" d="M 1349.5,785.5 C 1350.17,795.833 1350.83,806.167 1351.5,816.5C 1351.44,817.043 1351.11,817.376 1350.5,817.5C 1349.5,806.854 1349.17,796.187 1349.5,785.5 Z"/></g>
<g><path style="opacity:1" fill="#242424" d="M 1432.5,806.5 C 1439.51,806.334 1446.51,806.5 1453.5,807C 1489.68,817.927 1524.01,832.927 1556.5,852C 1571.01,865.261 1587.68,874.928 1606.5,881C 1628.38,883.444 1647.38,892.11 1663.5,907C 1674.16,911.994 1684.16,917.994 1693.5,925C 1710.24,940.22 1716.41,959.053 1712,981.5C 1706.07,1002.11 1694.57,1018.94 1677.5,1032C 1663.15,1042.51 1647.82,1051.51 1631.5,1059C 1606.59,1068.75 1581.92,1079.08 1557.5,1090C 1533.58,1109.12 1506.58,1122.12 1476.5,1129C 1459.79,1131.93 1442.95,1133.76 1426,1134.5C 1405.06,1133.58 1385.56,1127.74 1367.5,1117C 1360.33,1112.58 1353.33,1107.91 1346.5,1103C 1332.87,1091.03 1319.53,1078.7 1306.5,1066C 1296.97,1058.15 1286.64,1051.48 1275.5,1046C 1252.57,1025.3 1235.74,1000.47 1225,971.5C 1223.86,963.644 1225.36,962.477 1229.5,968C 1234.32,969.898 1239.32,971.231 1244.5,972C 1247.93,976.879 1250.77,982.045 1253,987.5C 1275.1,1013.47 1301.93,1032.97 1333.5,1046C 1362.48,1057.9 1392.48,1066.06 1423.5,1070.5C 1465.56,1064.32 1506.23,1053.15 1545.5,1037C 1570.18,1026.01 1592.84,1012.01 1613.5,995C 1640.81,980.844 1668.48,967.511 1696.5,955C 1698.1,953.065 1699.27,950.899 1700,948.5C 1703.92,933.093 1698.42,928.26 1683.5,934C 1655.05,946.058 1626.72,958.392 1598.5,971C 1541.63,1014.62 1477.3,1034.95 1405.5,1032C 1369.27,1025.72 1336.94,1011.05 1308.5,988C 1297.2,978.369 1286.2,968.369 1275.5,958C 1272.42,957.654 1269.42,956.988 1266.5,956C 1257.34,951.418 1248.01,947.418 1238.5,944C 1241.93,939.81 1245.6,935.81 1249.5,932C 1277.93,914.258 1303.43,892.758 1326,867.5C 1348.96,836.581 1379.46,817.081 1417.5,809C 1422.64,808.162 1427.64,807.328 1432.5,806.5 Z M 1435.5,841.5 C 1405.92,845.873 1380.76,858.873 1360,880.5C 1343.99,901.675 1325.49,920.341 1304.5,936.5C 1330.08,963.803 1360.75,983.303 1396.5,995C 1424.75,999.164 1452.75,997.83 1480.5,991C 1518.56,979.638 1553.23,961.972 1584.5,938C 1596.86,932.483 1609.2,926.983 1621.5,921.5C 1619.66,920.081 1617.66,918.914 1615.5,918C 1597.04,915.72 1579.71,910.053 1563.5,901C 1552.17,893 1540.83,885 1529.5,877C 1503.27,862.809 1475.93,851.142 1447.5,842C 1443.51,841.501 1439.51,841.334 1435.5,841.5 Z"/></g>
<g><path style="opacity:0.988" fill="#242424" d="M 2276.5,1967.5 C 2268.5,1967.5 2260.5,1967.5 2252.5,1967.5C 2252.8,1964.94 2252.47,1962.61 2251.5,1960.5C 2249.5,1942.16 2242.33,1926.16 2230,1912.5C 2215.05,1897.12 2198.22,1884.29 2179.5,1874C 2141.41,1852.3 2100.74,1837.97 2057.5,1831C 2001.11,1826.02 1965.77,1850.85 1951.5,1905.5C 1948.81,1905.34 1946.15,1905.5 1943.5,1906C 1937.05,1908.73 1930.71,1911.73 1924.5,1915C 1920.65,1916.62 1916.65,1917.62 1912.5,1918C 1887.87,1930.63 1868.37,1948.8 1854,1972.5C 1838.8,1999.09 1828.14,2027.42 1822,2057.5C 1816.6,2083.62 1812.6,2109.95 1810,2136.5C 1806.95,2171.15 1804.11,2205.82 1801.5,2240.5C 1801.91,2249.25 1803.08,2257.92 1805,2266.5C 1805.83,2283.19 1805.5,2299.86 1804,2316.5C 1799.79,2338.34 1794.79,2360 1789,2381.5C 1789.25,2388.2 1787.92,2394.54 1785,2400.5C 1782.05,2403.57 1779.22,2406.74 1776.5,2410C 1662.24,2493.26 1535.24,2522.26 1395.5,2497C 1349.23,2487.35 1305.23,2471.35 1263.5,2449C 1237.92,2411.17 1212.59,2373.17 1187.5,2335C 1236.67,2327.82 1257.51,2299.66 1250,2250.5C 1243.65,2225.14 1232.98,2201.81 1218,2180.5C 1182.42,2132.25 1140.25,2090.75 1091.5,2056C 1064.67,2037.09 1037.67,2018.42 1010.5,2000C 942.782,1945.89 908.449,1875.22 907.5,1788C 907.794,1746.27 913.961,1705.44 926,1665.5C 943.216,1609.85 965.882,1556.52 994,1505.5C 1011.78,1472.75 1030.95,1440.92 1051.5,1410C 1053.02,1408.99 1054.69,1408.49 1056.5,1408.5C 1053.16,1422.67 1048.33,1436.34 1042,1449.5C 1029.61,1475.96 1016.94,1502.29 1004,1528.5C 976.864,1586.04 959.197,1646.38 951,1709.5C 944.327,1765.81 951.661,1820.15 973,1872.5C 979.795,1887.75 987.961,1902.08 997.5,1915.5C 997.783,1916.29 998.283,1916.96 999,1917.5C 999.499,1912.18 999.666,1906.84 999.5,1901.5C 1001.08,1852.9 1007.25,1804.9 1018,1757.5C 1029.44,1708.51 1044.11,1660.51 1062,1613.5C 1104.93,1532.71 1141.26,1449.04 1171,1362.5C 1203.46,1267.12 1229.79,1170.12 1250,1071.5C 1253.53,1075.37 1257.37,1078.87 1261.5,1082C 1266.09,1083.05 1270.76,1083.89 1275.5,1084.5C 1283.07,1092.57 1291.4,1099.74 1300.5,1106C 1304.35,1107.67 1308.35,1108.84 1312.5,1109.5C 1331.53,1134.87 1356.87,1150.37 1388.5,1156C 1426.07,1161.68 1463.41,1160.34 1500.5,1152C 1534.11,1142.7 1562.44,1125.04 1585.5,1099C 1592.99,1092.25 1601.65,1087.59 1611.5,1085C 1618.96,1084.26 1626.29,1082.93 1633.5,1081C 1673.25,1063.91 1708.09,1039.74 1738,1008.5C 1766.34,1101.84 1797.67,1194.17 1832,1285.5C 1858.54,1352.58 1888.87,1417.91 1923,1481.5C 1969.07,1576.03 2003.4,1674.69 2026,1777.5C 2056.47,1779.53 2085.97,1786.03 2114.5,1797C 2136.4,1807.9 2158.06,1819.23 2179.5,1831C 2207.41,1845.37 2232.57,1863.54 2255,1885.5C 2276.43,1909.2 2283.6,1936.53 2276.5,1967.5 Z M 1720.5,1070.5 C 1688.94,1096.78 1652.94,1114.28 1612.5,1123C 1605.53,1128.97 1598.86,1135.3 1592.5,1142C 1577.52,1154.63 1561.18,1165.3 1543.5,1174C 1482.93,1198.01 1421.26,1201.35 1358.5,1184C 1332.46,1175.66 1310.46,1161.33 1292.5,1141C 1285.46,1138.06 1278.96,1134.23 1273,1129.5C 1263.76,1169.7 1253.76,1209.7 1243,1249.5C 1206.74,1382.3 1156.74,1509.63 1093,1631.5C 1085.61,1651.68 1078.61,1672.02 1072,1692.5C 1047.99,1766.25 1035.32,1841.92 1034,1919.5C 1032.82,1924.54 1031.49,1929.54 1030,1934.5C 1024.94,1942.78 1017.78,1948.28 1008.5,1951C 1016.87,1959.04 1025.54,1966.71 1034.5,1974C 1059.01,1990.42 1083.34,2007.09 1107.5,2024C 1143.19,2049.65 1176.36,2078.48 1207,2110.5C 1227.77,2133.38 1246.1,2158.05 1262,2184.5C 1276.54,2211 1285.04,2239.34 1287.5,2269.5C 1287.26,2305.32 1272.43,2332.99 1243,2352.5C 1242.33,2353.5 1242.33,2354.5 1243,2355.5C 1257.62,2377.25 1272.12,2399.08 1286.5,2421C 1383.1,2469.99 1484.44,2482.99 1590.5,2460C 1650.09,2444.95 1704.25,2419.12 1753,2382.5C 1756.82,2368.23 1760.49,2353.89 1764,2339.5C 1771.98,2307.77 1772.48,2275.93 1765.5,2244C 1768.87,2199.09 1773.03,2154.26 1778,2109.5C 1783.13,2066.64 1793.13,2024.97 1808,1984.5C 1826.36,1941.14 1856.19,1908.31 1897.5,1886C 1906.8,1884.35 1915.47,1881.02 1923.5,1876C 1937.79,1839.87 1963.13,1815.04 1999.5,1801.5C 1998.24,1799.32 1996.74,1797.32 1995,1795.5C 1981.04,1733.62 1963.04,1672.95 1941,1613.5C 1914.75,1546.01 1884.42,1480.34 1850,1416.5C 1835.51,1385.85 1821.84,1354.85 1809,1323.5C 1776.4,1240.19 1746.9,1155.86 1720.5,1070.5 Z"/></g>
<g><path style="opacity:0.969" fill="#252525" d="M 1405.5,1415.5 C 1465.17,1415.33 1524.83,1415.5 1584.5,1416C 1606.11,1419.95 1618.61,1432.78 1622,1454.5C 1622.5,1520.5 1622.67,1586.5 1622.5,1652.5C 1635.55,1652.12 1648.55,1652.62 1661.5,1654C 1681.33,1657.83 1693.17,1669.67 1697,1689.5C 1698.25,1701.5 1695.58,1712.5 1689,1722.5C 1638.83,1772.67 1588.67,1822.83 1538.5,1873C 1567.5,1873.5 1596.5,1873.67 1625.5,1873.5C 1624.46,1859.86 1625.96,1846.52 1630,1833.5C 1641.3,1811.24 1659.47,1801.41 1684.5,1804C 1707.67,1808.5 1721.5,1822.33 1726,1845.5C 1730.6,1874.14 1726.6,1901.47 1714,1927.5C 1697.62,1953.62 1674.12,1969.12 1643.5,1974C 1594.02,1975.14 1544.52,1975.64 1495,1975.5C 1445.48,1975.64 1395.98,1975.14 1346.5,1974C 1299.88,1965.05 1272.38,1937.21 1264,1890.5C 1263.33,1875.83 1263.33,1861.17 1264,1846.5C 1268.17,1822.33 1282.34,1808.16 1306.5,1804C 1332.32,1801.53 1350.49,1812.03 1361,1835.5C 1364.15,1847.96 1365.31,1860.63 1364.5,1873.5C 1393.5,1873.67 1422.5,1873.5 1451.5,1873C 1401.67,1823.17 1351.83,1773.33 1302,1723.5C 1288.24,1702.5 1289.74,1682.67 1306.5,1664C 1312.81,1658.51 1320.14,1655.18 1328.5,1654C 1341.45,1652.62 1354.45,1652.12 1367.5,1652.5C 1367.33,1586.83 1367.5,1521.17 1368,1455.5C 1371.14,1433.2 1383.64,1419.86 1405.5,1415.5 Z"/></g>
<g><path style="opacity:1" fill="#fefefe" d="M 1403.5,1436.5 C 1464.17,1436.33 1524.83,1436.5 1585.5,1437C 1592.91,1439.41 1598.08,1444.24 1601,1451.5C 1601.5,1525.5 1601.67,1599.5 1601.5,1673.5C 1620.84,1673.33 1640.17,1673.5 1659.5,1674C 1672.76,1678.35 1678.6,1687.52 1677,1701.5C 1676,1703.83 1675,1706.17 1674,1708.5C 1619.17,1763.33 1564.33,1818.17 1509.5,1873C 1499.79,1878.9 1490.12,1878.9 1480.5,1873C 1426,1818.5 1371.5,1764 1317,1709.5C 1308.85,1693.31 1313.01,1681.47 1329.5,1674C 1349.16,1673.5 1368.83,1673.33 1388.5,1673.5C 1388.33,1599.5 1388.5,1525.5 1389,1451.5C 1392.02,1444.65 1396.85,1439.65 1403.5,1436.5 Z"/></g>
<g><path style="opacity:1" fill="#fefefe" d="M 1307.5,1823.5 C 1324.84,1822.08 1336.68,1829.42 1343,1845.5C 1343.33,1857.17 1343.67,1868.83 1344,1880.5C 1345.15,1887.31 1348.98,1891.81 1355.5,1894C 1448.5,1894.67 1541.5,1894.67 1634.5,1894C 1640.77,1892.07 1644.6,1887.9 1646,1881.5C 1646.33,1869.5 1646.67,1857.5 1647,1845.5C 1653.3,1829.26 1665.14,1822.1 1682.5,1824C 1694.56,1827.06 1702.39,1834.56 1706,1846.5C 1706.85,1862.53 1706.51,1878.53 1705,1894.5C 1696.09,1927.41 1674.93,1947.24 1641.5,1954C 1543.5,1954.67 1445.5,1954.67 1347.5,1954C 1311.65,1945.82 1290.49,1923.65 1284,1887.5C 1283.33,1874.17 1283.33,1860.83 1284,1847.5C 1287.35,1834.99 1295.18,1826.99 1307.5,1823.5 Z"/></g>
<g><path style="opacity:1" fill="#bababa" d="M 999.5,1901.5 C 999.666,1906.84 999.499,1912.18 999,1917.5C 998.283,1916.96 997.783,1916.29 997.5,1915.5C 998.167,1910.83 998.833,1906.17 999.5,1901.5 Z"/></g>
<g><path style="opacity:1" fill="#757575" d="M 2251.5,1960.5 C 2252.47,1962.61 2252.8,1964.94 2252.5,1967.5C 2260.5,1967.5 2268.5,1967.5 2276.5,1967.5C 2268.35,1968.49 2260.02,1968.83 2251.5,1968.5C 2251.5,1965.83 2251.5,1963.17 2251.5,1960.5 Z"/></g>
<g><path style="opacity:0.986" fill="#242424" d="M 835.5,1968.5 C 853.956,1968.15 870.956,1972.98 886.5,1983C 915.173,2003.67 939.007,2028.84 958,2058.5C 988.804,2106.76 1015.47,2157.43 1038,2210.5C 1058.09,2244.35 1079.42,2277.35 1102,2309.5C 1147.61,2360.12 1186.61,2415.45 1219,2475.5C 1240.6,2517.99 1242.27,2561.32 1224,2605.5C 1213.25,2629.59 1196.75,2648.75 1174.5,2663C 1113.24,2686.82 1050.58,2691.16 986.5,2676C 955.31,2668.17 926.31,2655.5 899.5,2638C 827.582,2601.61 751.248,2584.61 670.5,2587C 640.156,2582 609.823,2577 579.5,2572C 567.46,2569.99 556.127,2565.99 545.5,2560C 539.293,2556.1 535.126,2550.6 533,2543.5C 527.804,2527.58 526.137,2511.25 528,2494.5C 529.903,2483.09 532.236,2471.75 535,2460.5C 540.473,2443.75 546.139,2427.08 552,2410.5C 559.175,2380.81 559.175,2351.15 552,2321.5C 544.271,2300.82 539.771,2279.49 538.5,2257.5C 539.829,2236.03 544.662,2215.36 553,2195.5C 563.712,2175.21 579.879,2161.04 601.5,2153C 620.244,2146.2 638.911,2139.2 657.5,2132C 698.559,2111.61 729.725,2081.11 751,2040.5C 760.621,2027.88 770.621,2015.54 781,2003.5C 795.804,1986.36 813.97,1974.7 835.5,1968.5 Z M 841.5,2003.5 C 834.99,2006.09 828.657,2009.25 822.5,2013C 801.935,2030.89 785.102,2051.72 772,2075.5C 736.649,2129.81 687.482,2165.31 624.5,2182C 616.998,2184.95 609.665,2188.28 602.5,2192C 596.711,2195.45 591.878,2199.95 588,2205.5C 574.627,2230.44 570.961,2256.78 577,2284.5C 582.427,2300.54 586.76,2316.87 590,2333.5C 594.734,2361.37 593.401,2389.04 586,2416.5C 579.737,2437.96 573.071,2459.29 566,2480.5C 564.264,2490.43 563.097,2500.43 562.5,2510.5C 562.615,2517.39 563.781,2524.05 566,2530.5C 573.078,2534.19 580.578,2536.69 588.5,2538C 615.554,2542.01 642.554,2546.34 669.5,2551C 745.152,2549.86 817.819,2563.86 887.5,2593C 911.5,2605.33 935.5,2617.67 959.5,2630C 1002.62,2647.09 1047.29,2653.09 1093.5,2648C 1117,2646.28 1139.33,2640.28 1160.5,2630C 1166.64,2624.87 1172.47,2619.37 1178,2613.5C 1198.28,2586.8 1205.61,2556.8 1200,2523.5C 1194.65,2506.8 1187.65,2490.8 1179,2475.5C 1155.79,2434.97 1129.46,2396.63 1100,2360.5C 1077.31,2336.15 1057.31,2309.82 1040,2281.5C 1028.58,2262.33 1016.92,2243.33 1005,2224.5C 981.975,2169.77 954.309,2117.77 922,2068.5C 910.261,2051.92 896.761,2036.76 881.5,2023C 869.838,2013 856.505,2006.5 841.5,2003.5 Z"/></g>
<g><path style="opacity:0.986" fill="#242424" d="M 1961.5,1981.5 C 1965.03,2030.72 1987.7,2068.56 2029.5,2095C 2036.34,2099.25 2043.34,2103.25 2050.5,2107C 2085.05,2107.78 2118.72,2102.78 2151.5,2092C 2179.79,2081.87 2204.46,2066.2 2225.5,2045C 2248.86,2044.12 2272.19,2044.46 2295.5,2046C 2317.11,2050.29 2334.61,2061.12 2348,2078.5C 2370.09,2109.12 2380.76,2143.45 2380,2181.5C 2383.4,2193.36 2387.4,2205.03 2392,2216.5C 2400.45,2234.51 2408.11,2252.84 2415,2271.5C 2432.62,2289.11 2447.95,2308.44 2461,2329.5C 2471.63,2346.73 2476.97,2365.39 2477,2385.5C 2472.29,2393.22 2466.46,2400.05 2459.5,2406C 2421.79,2432.86 2381.12,2454.53 2337.5,2471C 2274.84,2500.27 2222,2542.1 2179,2596.5C 2129.61,2672.29 2059.44,2711.96 1968.5,2715.5C 1922.24,2719.81 1883.07,2705.48 1851,2672.5C 1839.28,2658.73 1830.94,2643.06 1826,2625.5C 1818.2,2580.34 1816.86,2535 1822,2489.5C 1827.05,2457.35 1836.72,2426.68 1851,2397.5C 1863.35,2351.8 1875.68,2306.14 1888,2260.5C 1891.94,2207.07 1896.94,2153.73 1903,2100.5C 1906.66,2076.87 1912.66,2053.87 1921,2031.5C 1929.97,2011.04 1943.47,1994.38 1961.5,1981.5 Z M 1947.5,2060.5 C 1941.95,2080.48 1938.11,2100.81 1936,2121.5C 1931.39,2167.45 1927.39,2213.45 1924,2259.5C 1910.8,2310.63 1897.14,2361.63 1883,2412.5C 1873.89,2431.49 1866.56,2451.16 1861,2471.5C 1853.06,2517.04 1852.4,2562.71 1859,2608.5C 1866.78,2644.61 1888.61,2667.45 1924.5,2677C 2012.55,2690.03 2084.05,2661.87 2139,2592.5C 2186.55,2524.99 2247.72,2473.82 2322.5,2439C 2360.5,2424.34 2396.5,2406 2430.5,2384C 2434.85,2380.99 2438.51,2377.32 2441.5,2373C 2436.22,2357.28 2428.72,2342.78 2419,2329.5C 2407,2315.5 2395,2301.5 2383,2287.5C 2372.33,2260.83 2361.67,2234.17 2351,2207.5C 2344.83,2187.96 2341.49,2167.96 2341,2147.5C 2337.88,2132.49 2332.22,2118.49 2324,2105.5C 2315.96,2093.06 2304.79,2084.9 2290.5,2081C 2273.86,2079.52 2257.19,2079.19 2240.5,2080C 2221.67,2096.59 2200.67,2109.93 2177.5,2120C 2144.59,2132.39 2110.59,2139.73 2075.5,2142C 2059.57,2144.14 2044.24,2142.14 2029.5,2136C 1995.22,2118.22 1967.89,2093.05 1947.5,2060.5 Z"/></g>
</svg>
