<?xml version="1.0" encoding="UTF-8"?>
<!DOCTYPE svg PUBLIC "-//W3C//DTD SVG 1.1//EN" "http://www.w3.org/Graphics/SVG/1.1/DTD/svg11.dtd">
<svg xmlns="http://www.w3.org/2000/svg" version="1.1" width="3000px" height="3000px" style="shape-rendering:geometricPrecision; text-rendering:geometricPrecision; image-rendering:optimizeQuality; fill-rule:evenodd; clip-rule:evenodd" xmlns:xlink="http://www.w3.org/1999/xlink">
<g><path style="opacity:0.985" fill="#242424" d="M 1544.5,222.5 C 1613.62,219.797 1679.95,231.964 1743.5,259C 1795.6,284.426 1837.76,321.26 1870,369.5C 1897.18,409.988 1916.84,453.988 1929,501.5C 1950.14,582.116 1961.14,664.116 1962,747.5C 1962.2,775.348 1962.7,803.181 1963.5,831C 1962.35,872.486 1962.19,913.986 1963,955.5C 1965.61,992.937 1974.94,1028.6 1991,1062.5C 2006.21,1095.27 2024.21,1126.27 2045,1155.5C 2083.85,1206.53 2123.18,1257.2 2163,1307.5C 2194.4,1350.64 2225.07,1394.31 2255,1438.5C 2301.68,1510.2 2337.35,1587.2 2362,1669.5C 2372.87,1707.54 2380.54,1746.2 2385,1785.5C 2391.39,1846.66 2386.89,1906.99 2371.5,1966.5C 2410.35,1993.2 2440.18,2027.86 2461,2070.5C 2471.42,2096.84 2476.75,2124.17 2477,2152.5C 2482.05,2170.27 2489.05,2187.27 2498,2203.5C 2514.1,2226.68 2528.43,2251.01 2541,2276.5C 2564.44,2326.89 2572.1,2379.55 2564,2434.5C 2557.44,2475.36 2537.94,2508.53 2505.5,2534C 2467.43,2561.54 2426.43,2584.21 2382.5,2602C 2335.91,2623.1 2293.58,2650.44 2255.5,2684C 2245.6,2693.23 2236.43,2703.06 2228,2713.5C 2144.94,2797.6 2044.11,2842.43 1925.5,2848C 1848.6,2835.33 1789.1,2796.5 1747,2731.5C 1742.14,2723.11 1737.81,2714.45 1734,2705.5C 1729.28,2699.89 1725.44,2693.72 1722.5,2687C 1699.84,2687.84 1677.18,2687.5 1654.5,2686C 1610.84,2681.25 1567.17,2676.58 1523.5,2672C 1495.75,2670.85 1468.09,2671.85 1440.5,2675C 1397.74,2681.25 1355.07,2688.09 1312.5,2695.5C 1298.43,2721.44 1279.76,2743.61 1256.5,2762C 1247.5,2768.33 1238.5,2774.67 1229.5,2781C 1186.9,2795.57 1143.24,2805.23 1098.5,2810C 1011.26,2809.47 930.258,2786.81 855.5,2742C 812.815,2724.11 768.815,2710.44 723.5,2701C 668.257,2697.52 613.924,2688.52 560.5,2674C 517.473,2662.25 482.639,2638.75 456,2603.5C 436.769,2558.68 429.435,2512.01 434,2463.5C 436.525,2449.73 439.525,2436.07 443,2422.5C 447.728,2408.71 452.728,2395.05 458,2381.5C 462.438,2364.96 461.105,2348.96 454,2333.5C 442.816,2293.2 442.816,2252.86 454,2212.5C 467.562,2141.94 507.729,2093.44 574.5,2067C 598.193,2059.65 620.526,2049.32 641.5,2036C 648.221,2022.08 657.054,2009.58 668,1998.5C 684.298,1972.19 703.631,1948.19 726,1926.5C 730.203,1797.36 758.203,1673.69 810,1555.5C 839.39,1491.66 876.057,1432.66 920,1378.5C 935.315,1350.53 952.982,1324.2 973,1299.5C 1048.81,1219.93 1100.81,1126.6 1129,1019.5C 1134.05,995.404 1137.39,971.07 1139,946.5C 1140.35,915.51 1140.68,884.51 1140,853.5C 1136.49,795.374 1133.99,737.208 1132.5,679C 1131.67,608.811 1140.84,539.978 1160,472.5C 1201.92,342.259 1290.08,263.759 1424.5,237C 1464.24,228.827 1504.24,223.993 1544.5,222.5 Z M 1674.5,819.5 C 1676.43,811.206 1679.27,803.206 1683,795.5C 1684.74,789.051 1686.24,782.551 1687.5,776C 1685.77,749.25 1679.27,723.75 1668,699.5C 1658.82,682.957 1645.99,670.123 1629.5,661C 1617.83,656.746 1605.83,654.746 1593.5,655C 1574.44,656.566 1557.94,663.733 1544,676.5C 1557.57,657.659 1575.74,644.826 1598.5,638C 1631.45,643.562 1657.95,659.728 1678,686.5C 1683.41,695.322 1687.74,704.656 1691,714.5C 1693.09,738.276 1692.09,761.943 1688,785.5C 1684.84,797.474 1680.34,808.807 1674.5,819.5 Z M 1257.5,710.5 C 1262.61,693.76 1271.61,679.593 1284.5,668C 1297.9,660.204 1310.9,660.871 1323.5,670C 1334.15,678.85 1341.65,689.684 1346,702.5C 1342.71,699.213 1338.87,696.713 1334.5,695C 1326.66,693.166 1318.83,691.333 1311,689.5C 1299.11,692.097 1287.28,694.93 1275.5,698C 1269.3,701.93 1263.3,706.097 1257.5,710.5 Z M 1436.5,839.5 C 1440.51,839.334 1444.51,839.501 1448.5,840C 1476.93,849.142 1504.27,860.809 1530.5,875C 1541.83,883 1553.17,891 1564.5,899C 1580.71,908.053 1598.04,913.72 1616.5,916C 1618.66,916.914 1620.66,918.081 1622.5,919.5C 1610.2,924.983 1597.86,930.483 1585.5,936C 1554.23,959.972 1519.56,977.638 1481.5,989C 1453.75,995.83 1425.75,997.164 1397.5,993C 1361.75,981.303 1331.08,961.803 1305.5,934.5C 1326.49,918.341 1344.99,899.675 1361,878.5C 1381.76,856.873 1406.92,843.873 1436.5,839.5 Z M 1721.5,1068.5 C 1747.9,1153.86 1777.4,1238.19 1810,1321.5C 1822.84,1352.85 1836.51,1383.85 1851,1414.5C 1885.42,1478.34 1915.75,1544.01 1942,1611.5C 1964.04,1670.95 1982.04,1731.62 1996,1793.5C 1997.74,1795.32 1999.24,1797.32 2000.5,1799.5C 1964.13,1813.04 1938.79,1837.87 1924.5,1874C 1916.47,1879.02 1907.8,1882.35 1898.5,1884C 1857.19,1906.31 1827.36,1939.14 1809,1982.5C 1794.13,2022.97 1784.13,2064.64 1779,2107.5C 1774.03,2152.26 1769.87,2197.09 1766.5,2242C 1773.48,2273.93 1772.98,2305.77 1765,2337.5C 1761.49,2351.89 1757.82,2366.23 1754,2380.5C 1705.25,2417.12 1651.09,2442.95 1591.5,2458C 1485.44,2480.99 1384.1,2467.99 1287.5,2419C 1273.12,2397.08 1258.62,2375.25 1244,2353.5C 1243.33,2352.5 1243.33,2351.5 1244,2350.5C 1273.43,2330.99 1288.26,2303.32 1288.5,2267.5C 1286.04,2237.34 1277.54,2209 1263,2182.5C 1247.1,2156.05 1228.77,2131.38 1208,2108.5C 1177.36,2076.48 1144.19,2047.65 1108.5,2022C 1084.34,2005.09 1060.01,1988.42 1035.5,1972C 1026.54,1964.71 1017.87,1957.04 1009.5,1949C 1018.78,1946.28 1025.94,1940.78 1031,1932.5C 1032.49,1927.54 1033.82,1922.54 1035,1917.5C 1036.32,1839.92 1048.99,1764.25 1073,1690.5C 1079.61,1670.02 1086.61,1649.68 1094,1629.5C 1157.74,1507.63 1207.74,1380.3 1244,1247.5C 1254.76,1207.7 1264.76,1167.7 1274,1127.5C 1279.96,1132.23 1286.46,1136.06 1293.5,1139C 1311.46,1159.33 1333.46,1173.66 1359.5,1182C 1422.26,1199.35 1483.93,1196.01 1544.5,1172C 1562.18,1163.3 1578.52,1152.63 1593.5,1140C 1599.86,1133.3 1606.53,1126.97 1613.5,1121C 1653.94,1112.28 1689.94,1094.78 1721.5,1068.5 Z M 1312.5,1894.5 C 1314.62,1895.37 1314.79,1896.37 1313,1897.5C 1311.32,1896.82 1311.15,1895.82 1312.5,1894.5 Z M 842.5,2001.5 C 857.505,2004.5 870.838,2011 882.5,2021C 897.761,2034.76 911.261,2049.92 923,2066.5C 955.309,2115.77 982.975,2167.77 1006,2222.5C 1017.92,2241.33 1029.58,2260.33 1041,2279.5C 1058.31,2307.82 1078.31,2334.15 1101,2358.5C 1130.46,2394.63 1156.79,2432.97 1180,2473.5C 1188.65,2488.8 1195.65,2504.8 1201,2521.5C 1206.61,2554.8 1199.28,2584.8 1179,2611.5C 1173.47,2617.37 1167.64,2622.87 1161.5,2628C 1140.33,2638.28 1118,2644.28 1094.5,2646C 1048.29,2651.09 1003.62,2645.09 960.5,2628C 936.5,2615.67 912.5,2603.33 888.5,2591C 818.819,2561.86 746.152,2547.86 670.5,2549C 643.554,2544.34 616.554,2540.01 589.5,2536C 581.578,2534.69 574.078,2532.19 567,2528.5C 564.781,2522.05 563.615,2515.39 563.5,2508.5C 564.097,2498.43 565.264,2488.43 567,2478.5C 574.071,2457.29 580.737,2435.96 587,2414.5C 594.401,2387.04 595.734,2359.37 591,2331.5C 587.76,2314.87 583.427,2298.54 578,2282.5C 571.961,2254.78 575.627,2228.44 589,2203.5C 592.878,2197.95 597.711,2193.45 603.5,2190C 610.665,2186.28 617.998,2182.95 625.5,2180C 688.482,2163.31 737.649,2127.81 773,2073.5C 786.102,2049.72 802.935,2028.89 823.5,2011C 829.657,2007.25 835.99,2004.09 842.5,2001.5 Z M 1948.5,2058.5 C 1968.89,2091.05 1996.22,2116.22 2030.5,2134C 2045.24,2140.14 2060.57,2142.14 2076.5,2140C 2111.59,2137.73 2145.59,2130.39 2178.5,2118C 2201.67,2107.93 2222.67,2094.59 2241.5,2078C 2258.19,2077.19 2274.86,2077.52 2291.5,2079C 2305.79,2082.9 2316.96,2091.06 2325,2103.5C 2333.22,2116.49 2338.88,2130.49 2342,2145.5C 2342.49,2165.96 2345.83,2185.96 2352,2205.5C 2362.67,2232.17 2373.33,2258.83 2384,2285.5C 2396,2299.5 2408,2313.5 2420,2327.5C 2429.72,2340.78 2437.22,2355.28 2442.5,2371C 2439.51,2375.32 2435.85,2378.99 2431.5,2382C 2397.5,2404 2361.5,2422.34 2323.5,2437C 2248.72,2471.82 2187.55,2522.99 2140,2590.5C 2085.05,2659.87 2013.55,2688.03 1925.5,2675C 1889.61,2665.45 1867.78,2642.61 1860,2606.5C 1853.4,2560.71 1854.06,2515.04 1862,2469.5C 1867.56,2449.16 1874.89,2429.49 1884,2410.5C 1898.14,2359.63 1911.8,2308.63 1925,2257.5C 1928.39,2211.45 1932.39,2165.45 1937,2119.5C 1939.11,2098.81 1942.95,2078.48 1948.5,2058.5 Z"/></g>
<g><path style="opacity:1" fill="#fefefe" d="M 1530.5,258.5 C 1588.98,254.496 1645.98,261.662 1701.5,280C 1763.51,303.019 1812.01,342.519 1847,398.5C 1879.6,453.955 1900.93,513.621 1911,577.5C 1920.74,635.754 1926.08,694.42 1927,753.5C 1927.76,810.837 1927.6,868.171 1926.5,925.5C 1926.38,982.783 1938.88,1037.12 1964,1088.5C 1987.01,1133.22 2014.01,1175.22 2045,1214.5C 2076.05,1253.21 2106.71,1292.21 2137,1331.5C 2166.07,1371.31 2194.4,1411.64 2222,1452.5C 2263.56,1516.63 2296.9,1584.96 2322,1657.5C 2347.12,1732.92 2356.45,1810.25 2350,1889.5C 2346.24,1924.26 2339.08,1958.26 2328.5,1991.5C 2345.22,1994.53 2360.22,2001.36 2373.5,2012C 2396.61,2033.1 2415.11,2057.6 2429,2085.5C 2438.5,2107.84 2442.83,2131.17 2442,2155.5C 2447.17,2178.34 2455.5,2200 2467,2220.5C 2487.69,2250.21 2505.03,2281.88 2519,2315.5C 2532.65,2356.73 2535.32,2398.73 2527,2441.5C 2519.35,2468.81 2504.18,2490.98 2481.5,2508C 2452.29,2528.45 2421.29,2546.12 2388.5,2561C 2330.94,2584.42 2278.94,2616.42 2232.5,2657C 2221.27,2667.56 2210.77,2678.73 2201,2690.5C 2132.91,2757.96 2051.07,2798.46 1955.5,2812C 1938.23,2813.66 1921.23,2812.33 1904.5,2808C 1846.87,2791.36 1803.04,2757.19 1773,2705.5C 1769.94,2699.67 1767.28,2693.67 1765,2687.5C 1754.84,2676.53 1750.34,2663.53 1751.5,2648.5C 1715.56,2651.88 1679.56,2652.38 1643.5,2650C 1605.24,2644.94 1566.91,2640.61 1528.5,2637C 1507.83,2636.33 1487.17,2636.33 1466.5,2637C 1446.11,2638.87 1425.78,2641.21 1405.5,2644C 1373.26,2649.87 1340.92,2655.21 1308.5,2660C 1301.83,2660.33 1295.17,2660.67 1288.5,2661C 1278.39,2689.54 1261.39,2713.21 1237.5,2732C 1229.18,2738.49 1220.52,2744.49 1211.5,2750C 1176.46,2762.28 1140.46,2770.28 1103.5,2774C 1052.95,2776.21 1003.95,2768.54 956.5,2751C 928.279,2740.39 901.279,2727.39 875.5,2712C 821.155,2688.77 764.821,2672.44 706.5,2663C 660.681,2660.6 615.681,2653.26 571.5,2641C 537.515,2631.65 509.348,2613.48 487,2586.5C 470.212,2545.31 464.545,2502.65 470,2458.5C 471.529,2450.05 473.529,2441.72 476,2433.5C 480.333,2422.17 484.667,2410.83 489,2399.5C 494.512,2381.89 496.512,2363.89 495,2345.5C 491.329,2333.16 487.663,2320.82 484,2308.5C 478.321,2264.63 483.321,2221.96 499,2180.5C 522.918,2133.42 560.751,2103.92 612.5,2092C 632.144,2082.85 650.81,2072.18 668.5,2060C 673.509,2056.51 676.009,2051.67 676,2045.5C 681.44,2035.05 688.774,2026.05 698,2018.5C 707.397,2001.44 718.731,1985.77 732,1971.5C 742.042,1961.63 751.875,1951.63 761.5,1941.5C 762.462,1764.59 810.962,1602.26 907,1454.5C 920.565,1434.93 934.898,1415.93 950,1397.5C 960.08,1378.33 971.413,1360 984,1342.5C 1002.67,1320.5 1021.33,1298.5 1040,1276.5C 1090.43,1212.67 1128.09,1141.67 1153,1063.5C 1170.51,1003.44 1178.34,942.103 1176.5,879.5C 1175.46,844.123 1173.63,808.79 1171,773.5C 1167.52,713.464 1167.85,653.464 1172,593.5C 1176.34,540.836 1188.67,490.169 1209,441.5C 1244.17,365.337 1301.33,313.171 1380.5,285C 1407.52,275.662 1435.19,268.995 1463.5,265C 1485.92,262.158 1508.25,259.991 1530.5,258.5 Z M 1674.5,819.5 C 1680.34,808.807 1684.84,797.474 1688,785.5C 1692.09,761.943 1693.09,738.276 1691,714.5C 1687.74,704.656 1683.41,695.322 1678,686.5C 1657.95,659.728 1631.45,643.562 1598.5,638C 1575.74,644.826 1557.57,657.659 1544,676.5C 1557.94,663.733 1574.44,656.566 1593.5,655C 1605.83,654.746 1617.83,656.746 1629.5,661C 1645.99,670.123 1658.82,682.957 1668,699.5C 1679.27,723.75 1685.77,749.25 1687.5,776C 1686.24,782.551 1684.74,789.051 1683,795.5C 1679.27,803.206 1676.43,811.206 1674.5,819.5 Z M 1257.5,710.5 C 1263.3,706.097 1269.3,701.93 1275.5,698C 1287.28,694.93 1299.11,692.097 1311,689.5C 1318.83,691.333 1326.66,693.166 1334.5,695C 1338.87,696.713 1342.71,699.213 1346,702.5C 1341.65,689.684 1334.15,678.85 1323.5,670C 1310.9,660.871 1297.9,660.204 1284.5,668C 1271.61,679.593 1262.61,693.76 1257.5,710.5 Z M 1436.5,839.5 C 1406.92,843.873 1381.76,856.873 1361,878.5C 1344.99,899.675 1326.49,918.341 1305.5,934.5C 1331.08,961.803 1361.75,981.303 1397.5,993C 1425.75,997.164 1453.75,995.83 1481.5,989C 1519.56,977.638 1554.23,959.972 1585.5,936C 1597.86,930.483 1610.2,924.983 1622.5,919.5C 1620.66,918.081 1618.66,916.914 1616.5,916C 1598.04,913.72 1580.71,908.053 1564.5,899C 1553.17,891 1541.83,883 1530.5,875C 1504.27,860.809 1476.93,849.142 1448.5,840C 1444.51,839.501 1440.51,839.334 1436.5,839.5 Z M 1721.5,1068.5 C 1689.94,1094.78 1653.94,1112.28 1613.5,1121C 1606.53,1126.97 1599.86,1133.3 1593.5,1140C 1578.52,1152.63 1562.18,1163.3 1544.5,1172C 1483.93,1196.01 1422.26,1199.35 1359.5,1182C 1333.46,1173.66 1311.46,1159.33 1293.5,1139C 1286.46,1136.06 1279.96,1132.23 1274,1127.5C 1264.76,1167.7 1254.76,1207.7 1244,1247.5C 1207.74,1380.3 1157.74,1507.63 1094,1629.5C 1086.61,1649.68 1079.61,1670.02 1073,1690.5C 1048.99,1764.25 1036.32,1839.92 1035,1917.5C 1033.82,1922.54 1032.49,1927.54 1031,1932.5C 1025.94,1940.78 1018.78,1946.28 1009.5,1949C 1017.87,1957.04 1026.54,1964.71 1035.5,1972C 1060.01,1988.42 1084.34,2005.09 1108.5,2022C 1144.19,2047.65 1177.36,2076.48 1208,2108.5C 1228.77,2131.38 1247.1,2156.05 1263,2182.5C 1277.54,2209 1286.04,2237.34 1288.5,2267.5C 1288.26,2303.32 1273.43,2330.99 1244,2350.5C 1243.33,2351.5 1243.33,2352.5 1244,2353.5C 1258.62,2375.25 1273.12,2397.08 1287.5,2419C 1384.1,2467.99 1485.44,2480.99 1591.5,2458C 1651.09,2442.95 1705.25,2417.12 1754,2380.5C 1757.82,2366.23 1761.49,2351.89 1765,2337.5C 1772.98,2305.77 1773.48,2273.93 1766.5,2242C 1769.87,2197.09 1774.03,2152.26 1779,2107.5C 1784.13,2064.64 1794.13,2022.97 1809,1982.5C 1827.36,1939.14 1857.19,1906.31 1898.5,1884C 1907.8,1882.35 1916.47,1879.02 1924.5,1874C 1938.79,1837.87 1964.13,1813.04 2000.5,1799.5C 1999.24,1797.32 1997.74,1795.32 1996,1793.5C 1982.04,1731.62 1964.04,1670.95 1942,1611.5C 1915.75,1544.01 1885.42,1478.34 1851,1414.5C 1836.51,1383.85 1822.84,1352.85 1810,1321.5C 1777.4,1238.19 1747.9,1153.86 1721.5,1068.5 Z M 1312.5,1894.5 C 1311.15,1895.82 1311.32,1896.82 1313,1897.5C 1314.79,1896.37 1314.62,1895.37 1312.5,1894.5 Z M 842.5,2001.5 C 835.99,2004.09 829.657,2007.25 823.5,2011C 802.935,2028.89 786.102,2049.72 773,2073.5C 737.649,2127.81 688.482,2163.31 625.5,2180C 617.998,2182.95 610.665,2186.28 603.5,2190C 597.711,2193.45 592.878,2197.95 589,2203.5C 575.627,2228.44 571.961,2254.78 578,2282.5C 583.427,2298.54 587.76,2314.87 591,2331.5C 595.734,2359.37 594.401,2387.04 587,2414.5C 580.737,2435.96 574.071,2457.29 567,2478.5C 565.264,2488.43 564.097,2498.43 563.5,2508.5C 563.615,2515.39 564.781,2522.05 567,2528.5C 574.078,2532.19 581.578,2534.69 589.5,2536C 616.554,2540.01 643.554,2544.34 670.5,2549C 746.152,2547.86 818.819,2561.86 888.5,2591C 912.5,2603.33 936.5,2615.67 960.5,2628C 1003.62,2645.09 1048.29,2651.09 1094.5,2646C 1118,2644.28 1140.33,2638.28 1161.5,2628C 1167.64,2622.87 1173.47,2617.37 1179,2611.5C 1199.28,2584.8 1206.61,2554.8 1201,2521.5C 1195.65,2504.8 1188.65,2488.8 1180,2473.5C 1156.79,2432.97 1130.46,2394.63 1101,2358.5C 1078.31,2334.15 1058.31,2307.82 1041,2279.5C 1029.58,2260.33 1017.92,2241.33 1006,2222.5C 982.975,2167.77 955.309,2115.77 923,2066.5C 911.261,2049.92 897.761,2034.76 882.5,2021C 870.838,2011 857.505,2004.5 842.5,2001.5 Z M 1948.5,2058.5 C 1942.95,2078.48 1939.11,2098.81 1937,2119.5C 1932.39,2165.45 1928.39,2211.45 1925,2257.5C 1911.8,2308.63 1898.14,2359.63 1884,2410.5C 1874.89,2429.49 1867.56,2449.16 1862,2469.5C 1854.06,2515.04 1853.4,2560.71 1860,2606.5C 1867.78,2642.61 1889.61,2665.45 1925.5,2675C 2013.55,2688.03 2085.05,2659.87 2140,2590.5C 2187.55,2522.99 2248.72,2471.82 2323.5,2437C 2361.5,2422.34 2397.5,2404 2431.5,2382C 2435.85,2378.99 2439.51,2375.32 2442.5,2371C 2437.22,2355.28 2429.72,2340.78 2420,2327.5C 2408,2313.5 2396,2299.5 2384,2285.5C 2373.33,2258.83 2362.67,2232.17 2352,2205.5C 2345.83,2185.96 2342.49,2165.96 2342,2145.5C 2338.88,2130.49 2333.22,2116.49 2325,2103.5C 2316.96,2091.06 2305.79,2082.9 2291.5,2079C 2274.86,2077.52 2258.19,2077.19 2241.5,2078C 2222.67,2094.59 2201.67,2107.93 2178.5,2118C 2145.59,2130.39 2111.59,2137.73 2076.5,2140C 2060.57,2142.14 2045.24,2140.14 2030.5,2134C 1996.22,2116.22 1968.89,2091.05 1948.5,2058.5 Z"/></g>
<g><path style="opacity:0.989" fill="#242424" d="M 1599.5,601.5 C 1646.91,609.433 1684.07,633.1 1711,672.5C 1728.1,702.19 1733.1,733.857 1726,767.5C 1721.92,803.404 1709.76,836.237 1689.5,866C 1684.5,866.667 1679.5,866.667 1674.5,866C 1661.5,860.333 1648.5,854.667 1635.5,849C 1632.35,847.022 1629.69,844.522 1627.5,841.5C 1630.64,837.191 1633.14,832.524 1635,827.5C 1639.14,811.09 1644.47,795.09 1651,779.5C 1652.42,753.19 1645.76,729.19 1631,707.5C 1618.71,691.134 1602.87,686.301 1583.5,693C 1565.9,700.6 1553.74,713.433 1547,731.5C 1540.09,750.551 1537.09,770.218 1538,790.5C 1534.71,787.213 1530.87,784.713 1526.5,783C 1518.91,780.136 1511.24,777.469 1503.5,775C 1498.33,772.92 1493.67,770.087 1489.5,766.5C 1479.91,709.401 1497.58,662.901 1542.5,627C 1559.79,614.522 1578.79,606.022 1599.5,601.5 Z M 1674.5,819.5 C 1680.34,808.807 1684.84,797.474 1688,785.5C 1692.09,761.943 1693.09,738.276 1691,714.5C 1687.74,704.656 1683.41,695.322 1678,686.5C 1657.95,659.728 1631.45,643.562 1598.5,638C 1575.74,644.826 1557.57,657.659 1544,676.5C 1557.94,663.733 1574.44,656.566 1593.5,655C 1605.83,654.746 1617.83,656.746 1629.5,661C 1645.99,670.123 1658.82,682.957 1668,699.5C 1679.27,723.75 1685.77,749.25 1687.5,776C 1686.24,782.551 1684.74,789.051 1683,795.5C 1679.27,803.206 1676.43,811.206 1674.5,819.5 Z"/></g>
<g><path style="opacity:0.994" fill="#242424" d="M 1400.5,763.5 C 1400.5,772.5 1400.5,781.5 1400.5,790.5C 1399.21,790.263 1398.21,790.596 1397.5,791.5C 1380.41,795.213 1365.41,802.88 1352.5,814.5C 1351.83,804.167 1351.17,793.833 1350.5,783.5C 1349.25,766.913 1343.75,751.913 1334,738.5C 1320.98,724.004 1305.82,721.504 1288.5,731C 1280.42,737.092 1274.59,744.925 1271,754.5C 1262.72,777.806 1261.39,801.473 1267,825.5C 1272.66,837.842 1280.66,848.508 1291,857.5C 1291.67,859.167 1291.67,860.833 1291,862.5C 1287.79,864.461 1284.29,865.627 1280.5,866C 1274.5,866.667 1268.5,866.667 1262.5,866C 1237.91,841.993 1221.74,813.16 1214,779.5C 1209.84,734.483 1220.5,693.483 1246,656.5C 1271.14,625.26 1301.64,618.76 1337.5,637C 1352.48,646.975 1364.31,659.808 1373,675.5C 1387.7,703.102 1396.87,732.435 1400.5,763.5 Z M 1257.5,710.5 C 1263.3,706.097 1269.3,701.93 1275.5,698C 1287.28,694.93 1299.11,692.097 1311,689.5C 1318.83,691.333 1326.66,693.166 1334.5,695C 1338.87,696.713 1342.71,699.213 1346,702.5C 1341.65,689.684 1334.15,678.85 1323.5,670C 1310.9,660.871 1297.9,660.204 1284.5,668C 1271.61,679.593 1262.61,693.76 1257.5,710.5 Z"/></g>
<g><path style="opacity:1" fill="#9d9d9d" d="M 1400.5,763.5 C 1401.49,772.652 1401.83,781.985 1401.5,791.5C 1400.17,791.5 1398.83,791.5 1397.5,791.5C 1398.21,790.596 1399.21,790.263 1400.5,790.5C 1400.5,781.5 1400.5,772.5 1400.5,763.5 Z"/></g>
<g><path style="opacity:1" fill="#7d7d7d" d="M 1350.5,783.5 C 1351.17,793.833 1351.83,804.167 1352.5,814.5C 1352.44,815.043 1352.11,815.376 1351.5,815.5C 1350.5,804.854 1350.17,794.187 1350.5,783.5 Z"/></g>
<g><path style="opacity:1" fill="#242424" d="M 1433.5,804.5 C 1440.51,804.334 1447.51,804.5 1454.5,805C 1490.68,815.927 1525.01,830.927 1557.5,850C 1572.01,863.261 1588.68,872.928 1607.5,879C 1629.38,881.444 1648.38,890.11 1664.5,905C 1675.16,909.994 1685.16,915.994 1694.5,923C 1711.24,938.22 1717.41,957.053 1713,979.5C 1707.07,1000.11 1695.57,1016.94 1678.5,1030C 1664.15,1040.51 1648.82,1049.51 1632.5,1057C 1607.59,1066.75 1582.92,1077.08 1558.5,1088C 1534.58,1107.12 1507.58,1120.12 1477.5,1127C 1460.79,1129.93 1443.95,1131.76 1427,1132.5C 1406.06,1131.58 1386.56,1125.74 1368.5,1115C 1361.33,1110.58 1354.33,1105.91 1347.5,1101C 1333.87,1089.03 1320.53,1076.7 1307.5,1064C 1297.97,1056.15 1287.64,1049.48 1276.5,1044C 1253.57,1023.3 1236.74,998.471 1226,969.5C 1224.86,961.644 1226.36,960.477 1230.5,966C 1235.32,967.898 1240.32,969.231 1245.5,970C 1248.93,974.879 1251.77,980.045 1254,985.5C 1276.1,1011.47 1302.93,1030.97 1334.5,1044C 1363.48,1055.9 1393.48,1064.06 1424.5,1068.5C 1466.56,1062.32 1507.23,1051.15 1546.5,1035C 1571.18,1024.01 1593.84,1010.01 1614.5,993C 1641.81,978.844 1669.48,965.511 1697.5,953C 1699.1,951.065 1700.27,948.899 1701,946.5C 1704.92,931.093 1699.42,926.26 1684.5,932C 1656.05,944.058 1627.72,956.392 1599.5,969C 1542.63,1012.62 1478.3,1032.95 1406.5,1030C 1370.27,1023.72 1337.94,1009.05 1309.5,986C 1298.2,976.369 1287.2,966.369 1276.5,956C 1273.42,955.654 1270.42,954.988 1267.5,954C 1258.34,949.418 1249.01,945.418 1239.5,942C 1242.93,937.81 1246.6,933.81 1250.5,930C 1278.93,912.258 1304.43,890.758 1327,865.5C 1349.96,834.581 1380.46,815.081 1418.5,807C 1423.64,806.162 1428.64,805.328 1433.5,804.5 Z M 1436.5,839.5 C 1406.92,843.873 1381.76,856.873 1361,878.5C 1344.99,899.675 1326.49,918.341 1305.5,934.5C 1331.08,961.803 1361.75,981.303 1397.5,993C 1425.75,997.164 1453.75,995.83 1481.5,989C 1519.56,977.638 1554.23,959.972 1585.5,936C 1597.86,930.483 1610.2,924.983 1622.5,919.5C 1620.66,918.081 1618.66,916.914 1616.5,916C 1598.04,913.72 1580.71,908.053 1564.5,899C 1553.17,891 1541.83,883 1530.5,875C 1504.27,860.809 1476.93,849.142 1448.5,840C 1444.51,839.501 1440.51,839.334 1436.5,839.5 Z"/></g>
<g><path style="opacity:0.988" fill="#242424" d="M 2277.5,1965.5 C 2269.5,1965.5 2261.5,1965.5 2253.5,1965.5C 2253.8,1962.94 2253.47,1960.61 2252.5,1958.5C 2250.5,1940.16 2243.33,1924.16 2231,1910.5C 2216.05,1895.12 2199.22,1882.29 2180.5,1872C 2142.41,1850.3 2101.74,1835.97 2058.5,1829C 2002.11,1824.02 1966.77,1848.85 1952.5,1903.5C 1949.81,1903.34 1947.15,1903.5 1944.5,1904C 1938.05,1906.73 1931.71,1909.73 1925.5,1913C 1921.65,1914.62 1917.65,1915.62 1913.5,1916C 1888.87,1928.63 1869.37,1946.8 1855,1970.5C 1839.8,1997.09 1829.14,2025.42 1823,2055.5C 1817.6,2081.62 1813.6,2107.95 1811,2134.5C 1807.95,2169.15 1805.11,2203.82 1802.5,2238.5C 1802.91,2247.25 1804.08,2255.92 1806,2264.5C 1806.83,2281.19 1806.5,2297.86 1805,2314.5C 1800.79,2336.34 1795.79,2358 1790,2379.5C 1790.25,2386.2 1788.92,2392.54 1786,2398.5C 1783.05,2401.57 1780.22,2404.74 1777.5,2408C 1663.24,2491.26 1536.24,2520.26 1396.5,2495C 1350.23,2485.35 1306.23,2469.35 1264.5,2447C 1238.92,2409.17 1213.59,2371.17 1188.5,2333C 1237.67,2325.82 1258.51,2297.66 1251,2248.5C 1244.65,2223.14 1233.98,2199.81 1219,2178.5C 1183.42,2130.25 1141.25,2088.75 1092.5,2054C 1065.67,2035.09 1038.67,2016.42 1011.5,1998C 943.782,1943.89 909.449,1873.22 908.5,1786C 908.794,1744.27 914.961,1703.44 927,1663.5C 944.216,1607.85 966.882,1554.52 995,1503.5C 1012.78,1470.75 1031.95,1438.92 1052.5,1408C 1054.02,1406.99 1055.69,1406.49 1057.5,1406.5C 1054.16,1420.67 1049.33,1434.34 1043,1447.5C 1030.61,1473.96 1017.94,1500.29 1005,1526.5C 977.864,1584.04 960.197,1644.38 952,1707.5C 945.327,1763.81 952.661,1818.15 974,1870.5C 980.795,1885.75 988.961,1900.08 998.5,1913.5C 998.783,1914.29 999.283,1914.96 1000,1915.5C 1000.5,1910.18 1000.67,1904.84 1000.5,1899.5C 1002.08,1850.9 1008.25,1802.9 1019,1755.5C 1030.44,1706.51 1045.11,1658.51 1063,1611.5C 1105.93,1530.71 1142.26,1447.04 1172,1360.5C 1204.46,1265.12 1230.79,1168.12 1251,1069.5C 1254.53,1073.37 1258.37,1076.87 1262.5,1080C 1267.09,1081.05 1271.76,1081.89 1276.5,1082.5C 1284.07,1090.57 1292.4,1097.74 1301.5,1104C 1305.35,1105.67 1309.35,1106.84 1313.5,1107.5C 1332.53,1132.87 1357.87,1148.37 1389.5,1154C 1427.07,1159.68 1464.41,1158.34 1501.5,1150C 1535.11,1140.7 1563.44,1123.04 1586.5,1097C 1593.99,1090.25 1602.65,1085.59 1612.5,1083C 1619.96,1082.26 1627.29,1080.93 1634.5,1079C 1674.25,1061.91 1709.09,1037.74 1739,1006.5C 1767.34,1099.84 1798.67,1192.17 1833,1283.5C 1859.54,1350.58 1889.87,1415.91 1924,1479.5C 1970.07,1574.03 2004.4,1672.69 2027,1775.5C 2057.47,1777.53 2086.97,1784.03 2115.5,1795C 2137.4,1805.9 2159.06,1817.23 2180.5,1829C 2208.41,1843.37 2233.57,1861.54 2256,1883.5C 2277.43,1907.2 2284.6,1934.53 2277.5,1965.5 Z M 1721.5,1068.5 C 1689.94,1094.78 1653.94,1112.28 1613.5,1121C 1606.53,1126.97 1599.86,1133.3 1593.5,1140C 1578.52,1152.63 1562.18,1163.3 1544.5,1172C 1483.93,1196.01 1422.26,1199.35 1359.5,1182C 1333.46,1173.66 1311.46,1159.33 1293.5,1139C 1286.46,1136.06 1279.96,1132.23 1274,1127.5C 1264.76,1167.7 1254.76,1207.7 1244,1247.5C 1207.74,1380.3 1157.74,1507.63 1094,1629.5C 1086.61,1649.68 1079.61,1670.02 1073,1690.5C 1048.99,1764.25 1036.32,1839.92 1035,1917.5C 1033.82,1922.54 1032.49,1927.54 1031,1932.5C 1025.94,1940.78 1018.78,1946.28 1009.5,1949C 1017.87,1957.04 1026.54,1964.71 1035.5,1972C 1060.01,1988.42 1084.34,2005.09 1108.5,2022C 1144.19,2047.65 1177.36,2076.48 1208,2108.5C 1228.77,2131.38 1247.1,2156.05 1263,2182.5C 1277.54,2209 1286.04,2237.34 1288.5,2267.5C 1288.26,2303.32 1273.43,2330.99 1244,2350.5C 1243.33,2351.5 1243.33,2352.5 1244,2353.5C 1258.62,2375.25 1273.12,2397.08 1287.5,2419C 1384.1,2467.99 1485.44,2480.99 1591.5,2458C 1651.09,2442.95 1705.25,2417.12 1754,2380.5C 1757.82,2366.23 1761.49,2351.89 1765,2337.5C 1772.98,2305.77 1773.48,2273.93 1766.5,2242C 1769.87,2197.09 1774.03,2152.26 1779,2107.5C 1784.13,2064.64 1794.13,2022.97 1809,1982.5C 1827.36,1939.14 1857.19,1906.31 1898.5,1884C 1907.8,1882.35 1916.47,1879.02 1924.5,1874C 1938.79,1837.87 1964.13,1813.04 2000.5,1799.5C 1999.24,1797.32 1997.74,1795.32 1996,1793.5C 1982.04,1731.62 1964.04,1670.95 1942,1611.5C 1915.75,1544.01 1885.42,1478.34 1851,1414.5C 1836.51,1383.85 1822.84,1352.85 1810,1321.5C 1777.4,1238.19 1747.9,1153.86 1721.5,1068.5 Z M 1312.5,1894.5 C 1311.15,1895.82 1311.32,1896.82 1313,1897.5C 1314.79,1896.37 1314.62,1895.37 1312.5,1894.5 Z"/></g>
<g><path style="opacity:0.975" fill="#252525" d="M 1613.5,1431.5 C 1639.35,1428.16 1661.52,1435.49 1680,1453.5C 1690.9,1467.24 1691.23,1481.24 1681,1495.5C 1665.65,1511.35 1650.15,1527.01 1634.5,1542.5C 1644.65,1553.15 1654.99,1563.65 1665.5,1574C 1666.17,1574.67 1666.83,1574.67 1667.5,1574C 1682.17,1559.33 1696.83,1544.67 1711.5,1530C 1725.94,1518.05 1740.6,1517.72 1755.5,1529C 1777.14,1551.74 1783.31,1578.24 1774,1608.5C 1761.88,1630.96 1747.04,1651.46 1729.5,1670C 1717.6,1679.88 1704.27,1687.22 1689.5,1692C 1682.24,1693.98 1674.9,1695.65 1667.5,1697C 1651.09,1698.08 1634.76,1699.41 1618.5,1701C 1633.91,1708.62 1642.24,1721.12 1643.5,1738.5C 1642.34,1742.11 1641.84,1745.78 1642,1749.5C 1676.33,1783.83 1710.67,1818.17 1745,1852.5C 1770.42,1888.72 1767.92,1922.89 1737.5,1955C 1714.21,1974.32 1688.21,1978.98 1659.5,1969C 1649.64,1964.24 1640.64,1958.24 1632.5,1951C 1601.17,1918.67 1569.5,1886.67 1537.5,1855C 1513.58,1858.46 1496.75,1849.3 1487,1827.5C 1443.83,1870.67 1400.67,1913.83 1357.5,1957C 1324.47,1980.63 1291.8,1980.13 1259.5,1955.5C 1233.3,1928.55 1228.14,1897.88 1244,1863.5C 1248.28,1856.62 1253.28,1850.29 1259,1844.5C 1311.45,1792.04 1363.95,1739.71 1416.5,1687.5C 1394.85,1665.35 1373.01,1643.35 1351,1621.5C 1337.41,1622.47 1325.58,1618.31 1315.5,1609C 1294.33,1587.83 1273.17,1566.67 1252,1545.5C 1246.77,1537.96 1245.77,1529.96 1249,1521.5C 1267.47,1502.03 1286.3,1482.86 1305.5,1464C 1315,1458.03 1324.34,1458.37 1333.5,1465C 1355,1486.5 1376.5,1508 1398,1529.5C 1405.82,1539.76 1409.82,1551.43 1410,1564.5C 1431.67,1586.17 1453.33,1607.83 1475,1629.5C 1486.36,1618.47 1497.36,1607.14 1508,1595.5C 1509.34,1573.11 1511.34,1550.78 1514,1528.5C 1521.64,1499.88 1537.48,1477.04 1561.5,1460C 1572.23,1452.27 1583.23,1444.94 1594.5,1438C 1600.84,1435.5 1607.17,1433.33 1613.5,1431.5 Z M 1312.5,1894.5 C 1311.15,1895.82 1311.32,1896.82 1313,1897.5C 1314.79,1896.37 1314.62,1895.37 1312.5,1894.5 Z"/></g>
<g><path style="opacity:1" fill="#fdfdfd" d="M 1664.5,1676.5 C 1655.64,1676.52 1646.97,1677.18 1638.5,1678.5C 1627.16,1678.96 1615.83,1679.63 1604.5,1680.5C 1590.83,1694.83 1576.83,1708.83 1562.5,1722.5C 1537.51,1698.01 1512.68,1673.35 1488,1648.5C 1487.33,1647.5 1487.33,1646.5 1488,1645.5C 1501.67,1631.83 1515.33,1618.17 1529,1604.5C 1529.43,1586.77 1530.26,1569.1 1531.5,1551.5C 1532.97,1547.08 1533.64,1542.41 1533.5,1537.5C 1537.69,1514.96 1548.69,1496.46 1566.5,1482C 1578.22,1473.28 1590.22,1464.94 1602.5,1457C 1627.22,1446.72 1648.72,1451.22 1667,1470.5C 1668.19,1475.37 1667.19,1479.7 1664,1483.5C 1646.61,1500.23 1629.94,1517.56 1614,1535.5C 1612.75,1542.26 1613.75,1548.6 1617,1554.5C 1629.83,1567.33 1642.67,1580.17 1655.5,1593C 1663.3,1596.49 1670.96,1596.16 1678.5,1592C 1694.17,1576.33 1709.83,1560.67 1725.5,1545C 1731.47,1540.23 1737.3,1540.4 1743,1545.5C 1760.39,1566.95 1762.06,1589.61 1748,1613.5C 1738.65,1627.86 1728.15,1641.36 1716.5,1654C 1701.43,1666.7 1684.1,1674.2 1664.5,1676.5 Z"/></g>
<g><path style="opacity:1" fill="#fdfdfd" d="M 1737.5,1880.5 C 1737.72,1884.16 1738.72,1887.5 1740.5,1890.5C 1740.5,1896.5 1740.5,1902.5 1740.5,1908.5C 1739.39,1910.6 1738.72,1912.93 1738.5,1915.5C 1731.77,1937.05 1717.1,1949.55 1694.5,1953C 1679.16,1955.08 1665.49,1951.42 1653.5,1942C 1616.17,1904.67 1578.83,1867.33 1541.5,1830C 1537.91,1831.45 1534.25,1832.95 1530.5,1834.5C 1526.47,1834.5 1522.47,1834.16 1518.5,1833.5C 1509.13,1828.76 1504.96,1821.1 1506,1810.5C 1507.22,1806.38 1509.22,1802.72 1512,1799.5C 1519.33,1792.17 1526.67,1784.83 1534,1777.5C 1534.67,1776.83 1534.67,1776.17 1534,1775.5C 1475.5,1717 1417,1658.5 1358.5,1600C 1354.18,1600.16 1349.84,1600.66 1345.5,1601.5C 1341.55,1601.24 1337.88,1600.07 1334.5,1598C 1312.03,1576.53 1289.86,1554.7 1268,1532.5C 1267.33,1531.83 1267.33,1531.17 1268,1530.5C 1284.71,1513.46 1301.71,1496.79 1319,1480.5C 1341.65,1501.82 1363.65,1523.82 1385,1546.5C 1386.44,1548.27 1387.44,1550.27 1388,1552.5C 1388.48,1558.87 1388.48,1565.2 1388,1571.5C 1446.67,1630.17 1505.33,1688.83 1564,1747.5C 1571.83,1739.67 1579.67,1731.83 1587.5,1724C 1600.81,1715.09 1611.98,1717.26 1621,1730.5C 1623.98,1738.94 1622.48,1746.44 1616.5,1753C 1654,1790.5 1691.5,1828 1729,1865.5C 1732.87,1869.91 1735.7,1874.91 1737.5,1880.5 Z"/></g>
<g><path style="opacity:1" fill="#858585" d="M 1533.5,1537.5 C 1533.64,1542.41 1532.97,1547.08 1531.5,1551.5C 1531.36,1546.59 1532.03,1541.92 1533.5,1537.5 Z"/></g>
<g><path style="opacity:1" fill="#747474" d="M 1664.5,1676.5 C 1656.05,1678.07 1647.38,1678.74 1638.5,1678.5C 1646.97,1677.18 1655.64,1676.52 1664.5,1676.5 Z"/></g>
<g><path style="opacity:1" fill="#fdfdfd" d="M 1432.5,1699.5 C 1433.55,1699.35 1434.55,1699.52 1435.5,1700C 1460,1724.5 1484.5,1749 1509,1773.5C 1509.67,1774.5 1509.67,1775.5 1509,1776.5C 1453.47,1832.36 1397.64,1887.86 1341.5,1943C 1310.43,1961.6 1284.26,1956.43 1263,1927.5C 1252.75,1908.33 1253.08,1889.33 1264,1870.5C 1319.64,1813.86 1375.64,1757.53 1432,1701.5C 1432.46,1700.91 1432.63,1700.24 1432.5,1699.5 Z M 1312.5,1894.5 C 1311.15,1895.82 1311.32,1896.82 1313,1897.5C 1314.79,1896.37 1314.62,1895.37 1312.5,1894.5 Z"/></g>
<g><path style="opacity:1" fill="#8a8a8a" d="M 1518.5,1833.5 C 1522.47,1834.16 1526.47,1834.5 1530.5,1834.5C 1529.21,1835.16 1527.71,1835.49 1526,1835.5C 1523.18,1835.59 1520.68,1834.93 1518.5,1833.5 Z"/></g>
<g><path style="opacity:0.995" fill="#262626" d="M 1291.5,1901.5 C 1291.44,1896.8 1291.77,1892.13 1292.5,1887.5C 1300.8,1873.46 1312.14,1870.63 1326.5,1879C 1335.5,1887.88 1337,1898.04 1331,1909.5C 1322.76,1918.78 1312.92,1920.94 1301.5,1916C 1296.29,1912.39 1292.95,1907.56 1291.5,1901.5 Z M 1312.5,1894.5 C 1311.15,1895.82 1311.32,1896.82 1313,1897.5C 1314.79,1896.37 1314.62,1895.37 1312.5,1894.5 Z"/></g>
<g><path style="opacity:1" fill="#a5a5a5" d="M 1737.5,1880.5 C 1739.28,1883.5 1740.28,1886.84 1740.5,1890.5C 1738.72,1887.5 1737.72,1884.16 1737.5,1880.5 Z"/></g>
<g><path style="opacity:1" fill="#686868" d="M 1292.5,1887.5 C 1291.77,1892.13 1291.44,1896.8 1291.5,1901.5C 1290.84,1899.87 1290.51,1898.03 1290.5,1896C 1290.36,1892.85 1291.03,1890.02 1292.5,1887.5 Z"/></g>
<g><path style="opacity:1" fill="#bababa" d="M 1000.5,1899.5 C 1000.67,1904.84 1000.5,1910.18 1000,1915.5C 999.283,1914.96 998.783,1914.29 998.5,1913.5C 999.167,1908.83 999.833,1904.17 1000.5,1899.5 Z"/></g>
<g><path style="opacity:1" fill="#7d7d7d" d="M 1740.5,1908.5 C 1740.83,1911.23 1740.16,1913.56 1738.5,1915.5C 1738.72,1912.93 1739.39,1910.6 1740.5,1908.5 Z"/></g>
<g><path style="opacity:1" fill="#757575" d="M 2252.5,1958.5 C 2253.47,1960.61 2253.8,1962.94 2253.5,1965.5C 2261.5,1965.5 2269.5,1965.5 2277.5,1965.5C 2269.35,1966.49 2261.02,1966.83 2252.5,1966.5C 2252.5,1963.83 2252.5,1961.17 2252.5,1958.5 Z"/></g>
<g><path style="opacity:0.986" fill="#242424" d="M 836.5,1966.5 C 854.956,1966.15 871.956,1970.98 887.5,1981C 916.173,2001.67 940.007,2026.84 959,2056.5C 989.804,2104.76 1016.47,2155.43 1039,2208.5C 1059.09,2242.35 1080.42,2275.35 1103,2307.5C 1148.61,2358.12 1187.61,2413.45 1220,2473.5C 1241.6,2515.99 1243.27,2559.32 1225,2603.5C 1214.25,2627.59 1197.75,2646.75 1175.5,2661C 1114.24,2684.82 1051.58,2689.16 987.5,2674C 956.31,2666.17 927.31,2653.5 900.5,2636C 828.582,2599.61 752.248,2582.61 671.5,2585C 641.156,2580 610.823,2575 580.5,2570C 568.46,2567.99 557.127,2563.99 546.5,2558C 540.293,2554.1 536.126,2548.6 534,2541.5C 528.804,2525.58 527.137,2509.25 529,2492.5C 530.903,2481.09 533.236,2469.75 536,2458.5C 541.473,2441.75 547.139,2425.08 553,2408.5C 560.175,2378.81 560.175,2349.15 553,2319.5C 545.271,2298.82 540.771,2277.49 539.5,2255.5C 540.829,2234.03 545.662,2213.36 554,2193.5C 564.712,2173.21 580.879,2159.04 602.5,2151C 621.244,2144.2 639.911,2137.2 658.5,2130C 699.559,2109.61 730.725,2079.11 752,2038.5C 761.621,2025.88 771.621,2013.54 782,2001.5C 796.804,1984.36 814.97,1972.7 836.5,1966.5 Z M 842.5,2001.5 C 835.99,2004.09 829.657,2007.25 823.5,2011C 802.935,2028.89 786.102,2049.72 773,2073.5C 737.649,2127.81 688.482,2163.31 625.5,2180C 617.998,2182.95 610.665,2186.28 603.5,2190C 597.711,2193.45 592.878,2197.95 589,2203.5C 575.627,2228.44 571.961,2254.78 578,2282.5C 583.427,2298.54 587.76,2314.87 591,2331.5C 595.734,2359.37 594.401,2387.04 587,2414.5C 580.737,2435.96 574.071,2457.29 567,2478.5C 565.264,2488.43 564.097,2498.43 563.5,2508.5C 563.615,2515.39 564.781,2522.05 567,2528.5C 574.078,2532.19 581.578,2534.69 589.5,2536C 616.554,2540.01 643.554,2544.34 670.5,2549C 746.152,2547.86 818.819,2561.86 888.5,2591C 912.5,2603.33 936.5,2615.67 960.5,2628C 1003.62,2645.09 1048.29,2651.09 1094.5,2646C 1118,2644.28 1140.33,2638.28 1161.5,2628C 1167.64,2622.87 1173.47,2617.37 1179,2611.5C 1199.28,2584.8 1206.61,2554.8 1201,2521.5C 1195.65,2504.8 1188.65,2488.8 1180,2473.5C 1156.79,2432.97 1130.46,2394.63 1101,2358.5C 1078.31,2334.15 1058.31,2307.82 1041,2279.5C 1029.58,2260.33 1017.92,2241.33 1006,2222.5C 982.975,2167.77 955.309,2115.77 923,2066.5C 911.261,2049.92 897.761,2034.76 882.5,2021C 870.838,2011 857.505,2004.5 842.5,2001.5 Z"/></g>
<g><path style="opacity:0.986" fill="#242424" d="M 1962.5,1979.5 C 1966.03,2028.72 1988.7,2066.56 2030.5,2093C 2037.34,2097.25 2044.34,2101.25 2051.5,2105C 2086.05,2105.78 2119.72,2100.78 2152.5,2090C 2180.79,2079.87 2205.46,2064.2 2226.5,2043C 2249.86,2042.12 2273.19,2042.46 2296.5,2044C 2318.11,2048.29 2335.61,2059.12 2349,2076.5C 2371.09,2107.12 2381.76,2141.45 2381,2179.5C 2384.4,2191.36 2388.4,2203.03 2393,2214.5C 2401.45,2232.51 2409.11,2250.84 2416,2269.5C 2433.62,2287.11 2448.95,2306.44 2462,2327.5C 2472.63,2344.73 2477.97,2363.39 2478,2383.5C 2473.29,2391.22 2467.46,2398.05 2460.5,2404C 2422.79,2430.86 2382.12,2452.53 2338.5,2469C 2275.84,2498.27 2223,2540.1 2180,2594.5C 2130.61,2670.29 2060.44,2709.96 1969.5,2713.5C 1923.24,2717.81 1884.07,2703.48 1852,2670.5C 1840.28,2656.73 1831.94,2641.06 1827,2623.5C 1819.2,2578.34 1817.86,2533 1823,2487.5C 1828.05,2455.35 1837.72,2424.68 1852,2395.5C 1864.35,2349.8 1876.68,2304.14 1889,2258.5C 1892.94,2205.07 1897.94,2151.73 1904,2098.5C 1907.66,2074.87 1913.66,2051.87 1922,2029.5C 1930.97,2009.04 1944.47,1992.38 1962.5,1979.5 Z M 1948.5,2058.5 C 1942.95,2078.48 1939.11,2098.81 1937,2119.5C 1932.39,2165.45 1928.39,2211.45 1925,2257.5C 1911.8,2308.63 1898.14,2359.63 1884,2410.5C 1874.89,2429.49 1867.56,2449.16 1862,2469.5C 1854.06,2515.04 1853.4,2560.71 1860,2606.5C 1867.78,2642.61 1889.61,2665.45 1925.5,2675C 2013.55,2688.03 2085.05,2659.87 2140,2590.5C 2187.55,2522.99 2248.72,2471.82 2323.5,2437C 2361.5,2422.34 2397.5,2404 2431.5,2382C 2435.85,2378.99 2439.51,2375.32 2442.5,2371C 2437.22,2355.28 2429.72,2340.78 2420,2327.5C 2408,2313.5 2396,2299.5 2384,2285.5C 2373.33,2258.83 2362.67,2232.17 2352,2205.5C 2345.83,2185.96 2342.49,2165.96 2342,2145.5C 2338.88,2130.49 2333.22,2116.49 2325,2103.5C 2316.96,2091.06 2305.79,2082.9 2291.5,2079C 2274.86,2077.52 2258.19,2077.19 2241.5,2078C 2222.67,2094.59 2201.67,2107.93 2178.5,2118C 2145.59,2130.39 2111.59,2137.73 2076.5,2140C 2060.57,2142.14 2045.24,2140.14 2030.5,2134C 1996.22,2116.22 1968.89,2091.05 1948.5,2058.5 Z"/></g>
</svg>
