<?xml version="1.0" encoding="UTF-8"?>
<!DOCTYPE svg PUBLIC "-//W3C//DTD SVG 1.1//EN" "http://www.w3.org/Graphics/SVG/1.1/DTD/svg11.dtd">
<svg xmlns="http://www.w3.org/2000/svg" version="1.1" width="512px" height="512px" style="shape-rendering:geometricPrecision; text-rendering:geometricPrecision; image-rendering:optimizeQuality; fill-rule:evenodd; clip-rule:evenodd" xmlns:xlink="http://www.w3.org/1999/xlink">
<g><path style="opacity:0.971" fill="#fdfefd" d="M 233.5,-0.5 C 247.167,-0.5 260.833,-0.5 274.5,-0.5C 304.317,9.15263 323.483,29.1526 332,59.5C 339.345,89.3663 342.679,119.7 342,150.5C 344.778,161.507 349.112,171.84 355,181.5C 368.05,195.948 380.383,210.948 392,226.5C 416.433,265.55 428.433,308.217 428,354.5C 430.744,356.984 432.744,359.984 434,363.5C 434.819,374.077 434.652,384.577 433.5,395C 440.273,401.107 447.607,406.44 455.5,411C 466.604,419.701 470.437,430.868 467,444.5C 464.925,448.579 462.092,452.079 458.5,455C 445.248,460.862 431.915,466.528 418.5,472C 411.333,476.5 405.5,482.333 401,489.5C 390.087,500.368 377.254,507.701 362.5,511.5C 354.833,511.5 347.167,511.5 339.5,511.5C 330.106,507.941 323.44,501.441 319.5,492C 295.187,490.478 270.854,490.145 246.5,491C 225.029,492.989 205.362,499.822 187.5,511.5C 181.833,511.5 176.167,511.5 170.5,511.5C 162.979,509.277 155.313,507.11 147.5,505C 137.164,499.556 126.498,494.889 115.5,491C 98.9022,490.511 82.5689,488.178 66.5,484C 57.7298,481.552 50.2298,477.052 44,470.5C 42.227,466.848 41.0603,463.015 40.5,459C 42.0611,451.405 43.0611,443.739 43.5,436C 42.3624,423.826 41.529,411.66 41,399.5C 42.5281,392.606 46.3614,387.439 52.5,384C 63.1918,379.744 74.1918,376.577 85.5,374.5C 87.1162,360.256 93.6162,348.923 105,340.5C 116.867,286.112 136.534,234.779 164,186.5C 173.368,166.541 178.201,145.708 178.5,124C 178.862,94.5989 183.029,65.7655 191,37.5C 198.802,17.5227 212.968,4.85606 233.5,-0.5 Z M 207.5,64.5 C 220.436,64.5483 228.269,70.8816 231,83.5C 233.682,94.99 232.348,105.99 227,116.5C 225.333,118.167 223.667,119.833 222,121.5C 222.97,116.943 223.303,112.276 223,107.5C 221.172,94.4585 214.839,91.4585 204,98.5C 201.067,106.127 200.733,113.794 203,121.5C 198.228,117.632 195.228,112.632 194,106.5C 190.633,93.5179 192.633,81.5179 200,70.5C 202.114,67.8792 204.614,65.8792 207.5,64.5 Z M 271.5,64.5 C 284.436,64.5483 292.269,70.8816 295,83.5C 297.682,94.99 296.348,105.99 291,116.5C 289.333,118.167 287.667,119.833 286,121.5C 286.97,116.943 287.303,112.276 287,107.5C 285.172,94.4585 278.839,91.4585 268,98.5C 265.067,106.127 264.733,113.794 267,121.5C 262.228,117.632 259.228,112.632 258,106.5C 254.633,93.5179 256.633,81.5179 264,70.5C 266.114,67.8792 268.614,65.8792 271.5,64.5 Z M 236.5,128.5 C 254.324,128.717 269.991,134.55 283.5,146C 269.722,156.266 254.389,163.266 237.5,167C 234.833,167.667 232.167,167.667 229.5,167C 219.431,162.599 210.764,156.266 203.5,148C 213.012,138.913 224.012,132.413 236.5,128.5 Z M 290.5,167.5 C 291.675,167.281 292.675,167.614 293.5,168.5C 325.327,227.811 340.16,291.144 338,358.5C 327.362,377.047 321.695,397.047 321,418.5C 302.089,435.121 279.923,443.954 254.5,445C 237.066,447.234 219.732,446.567 202.5,443C 201.069,442.535 199.903,441.701 199,440.5C 196.125,434.788 192.291,429.788 187.5,425.5C 173.617,415.373 162.784,402.706 155,387.5C 149.593,370.68 141.093,355.68 129.5,342.5C 137.436,308.858 148.27,276.192 162,244.5C 173.654,220.862 184.988,197.196 196,173.5C 206.45,183.224 218.783,189.224 233,191.5C 253.824,187.162 272.991,179.162 290.5,167.5 Z M 113.5,363.5 C 116.755,365.926 119.588,368.926 122,372.5C 128.522,389.214 136.855,404.881 147,419.5C 156.721,430.554 167.054,440.887 178,450.5C 183.979,460.374 186.312,471.04 185,482.5C 184.654,484.848 183.487,486.681 181.5,488C 174.336,487.795 167.336,486.462 160.5,484C 147.419,478.862 134.419,473.529 121.5,468C 105.707,467.505 90.0407,465.838 74.5,463C 70.0056,462.288 67.0056,459.955 65.5,456C 66.6609,449.046 67.3276,442.046 67.5,435C 66.8651,425.435 66.0318,415.935 65,406.5C 65.3742,405.584 65.8742,404.75 66.5,404C 76.3652,400.827 86.3652,398.16 96.5,396C 102.636,392.915 106.802,388.081 109,381.5C 110.505,375.481 112.005,369.481 113.5,363.5 Z M 348.5,395.5 C 356.885,403.406 366.885,406.739 378.5,405.5C 390.32,406.842 400.82,403.842 410,396.5C 411.072,401.383 412.739,406.05 415,410.5C 424.398,419.068 434.232,427.068 444.5,434.5C 442.717,436.232 440.717,437.732 438.5,439C 424.464,442.894 411.464,448.894 399.5,457C 390.435,466.734 380.769,475.734 370.5,484C 362.803,487.195 354.803,488.528 346.5,488C 344.777,487.477 343.444,486.477 342.5,485C 341.437,481.916 340.771,478.749 340.5,475.5C 342.772,448.779 345.439,422.113 348.5,395.5 Z"/></g>
<g><path style="opacity:0.931" fill="#fefffe" d="M 213.5,239.5 C 232.5,239.5 251.5,239.5 270.5,239.5C 271.159,263.161 271.493,286.828 271.5,310.5C 280.167,310.5 288.833,310.5 297.5,310.5C 297.785,312.288 297.452,313.955 296.5,315.5C 293.952,319.212 291.619,323.045 289.5,327C 286.471,330.557 283.471,334.057 280.5,337.5C 279.365,339.707 278.699,342.04 278.5,344.5C 277.5,344.5 276.5,344.5 275.5,344.5C 275.5,346.167 275.5,347.833 275.5,349.5C 274.167,349.5 272.833,349.5 271.5,349.5C 271.285,353.321 269.618,356.321 266.5,358.5C 265.548,360.045 265.215,361.712 265.5,363.5C 264.5,363.5 263.5,363.5 262.5,363.5C 260.65,368.106 258.317,372.44 255.5,376.5C 254.328,376.919 253.328,377.585 252.5,378.5C 249.979,383.027 247.312,387.361 244.5,391.5C 242.5,391.5 240.5,391.5 238.5,391.5C 235.01,384.301 230.51,377.635 225,371.5C 223.727,369.286 222.727,366.953 222,364.5C 220.644,363.62 219.144,363.286 217.5,363.5C 217.66,361.801 217.494,360.134 217,358.5C 214.73,355.352 212.23,352.352 209.5,349.5C 208.548,347.955 208.215,346.288 208.5,344.5C 207.5,344.5 206.5,344.5 205.5,344.5C 204.69,342.202 203.856,339.868 203,337.5C 197.038,331.206 191.871,324.206 187.5,316.5C 186.652,314.591 186.318,312.591 186.5,310.5C 194.833,310.5 203.167,310.5 211.5,310.5C 211.054,286.781 211.72,263.114 213.5,239.5 Z"/></g>
</svg>
